<?xml version="1.0" standalone="no"?>
<!DOCTYPE svg PUBLIC "-//W3C//DTD SVG 20010904//EN"
 "http://www.w3.org/TR/2001/REC-SVG-20010904/DTD/svg10.dtd">
<svg version="1.0" xmlns="http://www.w3.org/2000/svg"
 width="2000.000000pt" height="2000.000000pt" viewBox="0 0 2000.000000 2000.000000"
 preserveAspectRatio="xMidYMid meet">

<g transform="translate(0.000000,2000.000000) scale(0.100000,-0.100000)"
fill="#000000" stroke="none">
<path d="M4607 18886 c-3 -7 -25 -18 -50 -24 -85 -22 -191 -86 -276 -166 -279
-266 -311 -690 -73 -989 98 -124 223 -210 373 -258 l74 -24 5330 0 5330 0 70
23 c255 86 426 263 506 521 34 112 32 274 -6 396 -15 50 -34 97 -41 106 -8 8
-14 20 -14 26 0 21 -66 111 -129 176 -90 94 -200 164 -289 187 -24 6 -46 18
-49 26 -8 21 -10748 22 -10756 0z"/>
<path d="M3210 16669 c-202 -24 -399 -146 -516 -319 -89 -133 -126 -251 -126
-415 -1 -102 3 -132 25 -200 36 -114 77 -190 145 -270 98 -117 221 -198 372
-246 l75 -24 6800 0 6800 0 80 27 c135 46 204 87 299 177 103 99 159 189 208
336 19 59 23 91 23 200 0 114 -4 140 -27 210 -52 156 -141 282 -267 379 -73
55 -137 89 -236 123 l-80 28 -6755 1 c-3715 1 -6784 -2 -6820 -7z"/>
<path d="M2235 14444 c-162 -19 -424 -79 -501 -115 -22 -10 -48 -19 -57 -19
-14 0 -209 -87 -247 -111 -8 -5 -31 -18 -50 -29 -231 -133 -475 -352 -627
-562 -103 -142 -133 -191 -199 -326 -88 -177 -137 -324 -174 -522 -19 -104
-20 -166 -20 -4985 0 -4819 1 -4881 20 -4985 37 -198 86 -345 173 -522 136
-275 354 -546 569 -710 135 -102 185 -138 191 -138 4 0 30 -15 59 -34 100 -63
318 -161 423 -188 22 -6 67 -19 99 -29 32 -10 97 -24 143 -30 52 -8 87 -17 90
-26 8 -21 15701 -19 15717 1 6 9 44 19 88 25 103 14 327 82 438 133 84 39 165
80 205 104 22 13 56 33 75 44 168 96 415 323 550 505 44 58 63 87 128 188 45
71 141 271 159 330 8 29 19 57 23 62 7 9 29 87 60 210 5 22 19 92 30 155 20
115 20 135 20 4905 0 4780 0 4790 -20 4905 -31 172 -67 318 -94 375 -8 17 -18
44 -22 60 -9 40 -115 257 -155 320 -69 107 -85 132 -129 190 -135 182 -382
409 -550 505 -19 11 -53 31 -75 44 -67 41 -219 114 -295 141 -130 48 -258 84
-338 95 -40 5 -91 15 -115 22 -33 10 -1707 13 -7802 14 -4268 0 -7773 0 -7790
-2z m15424 -1209 c107 -19 211 -58 281 -105 14 -10 43 -23 64 -30 51 -17 231
-195 267 -265 14 -27 31 -59 37 -70 6 -11 18 -35 26 -52 9 -18 23 -47 32 -64
9 -18 20 -66 25 -108 5 -42 15 -101 24 -131 13 -49 15 -562 15 -4635 0 -4521
-1 -4581 -20 -4655 -11 -41 -20 -90 -20 -109 0 -43 -19 -109 -41 -141 -9 -14
-20 -36 -24 -50 -4 -14 -15 -36 -24 -50 -9 -14 -25 -43 -36 -65 -30 -60 -213
-240 -261 -255 -21 -7 -50 -21 -64 -30 -44 -31 -135 -69 -216 -93 l-79 -22
-7620 -3 c-5724 -2 -7639 0 -7695 9 -99 15 -212 54 -295 101 -11 7 -33 18 -50
26 -47 24 -106 66 -156 114 -44 42 -189 236 -189 254 0 5 -6 21 -14 36 -24 46
-46 134 -46 185 0 26 -9 82 -20 123 -19 74 -20 134 -20 4625 0 4491 1 4551 20
4625 11 41 20 97 20 123 0 47 24 151 40 172 4 6 11 21 15 35 11 38 143 219
194 268 67 64 116 96 224 148 17 8 40 20 50 25 41 22 134 52 201 64 58 11
1496 13 7671 14 6655 1 7610 -1 7684 -14z"/>
</g>
</svg>
