<?xml version="1.0" encoding="UTF-8"?>
<svg version="1.1" viewBox="0 0 1600 1600" width="1280" height="1280" xmlns="http://www.w3.org/2000/svg">
<path transform="translate(675 9.74)" d="m0 0c3.71 0.0114 7.43 0.00459 11.1-0.00687 26.3-0.0689 52.5 0.912 78.6 4.58 0.79 0.108 1.58 0.216 2.39 0.327 76.6 10.5 156 32.2 224 69.6 3.19 1.73 6.43 3.32 9.7 4.89 17.7 8.82 34.5 19.4 50.6 30.9 1.12 0.794 1.12 0.794 2.25 1.6 4.5 3.21 8.98 6.45 13.4 9.71 2.41 1.76 4.82 3.51 7.24 5.26 7.94 5.78 15.7 11.6 23.2 18 3.23 2.71 6.55 5.28 9.89 7.86 6.67 5.18 12.8 10.8 19 16.6 1.75 1.59 3.5 3.17 5.25 4.75l2.2 1.98c1.41 1.25 2.82 2.5 4.25 3.73 5.08 4.38 9.89 8.97 14.6 13.7 1.15 1.14 1.15 1.14 2.32 2.31 1.61 1.61 3.22 3.21 4.83 4.82 2.43 2.43 4.87 4.85 7.31 7.27 7.15 7.13 14.2 14.2 20.4 22.2 2.01 2.55 4.15 4.93 6.34 7.32 16.8 18.5 31.5 39.6 46 59.9 1.23 1.71 2.46 3.42 3.7 5.12 12.7 17.8 23.6 36.8 33.4 56.3 1.22 2.37 2.47 4.71 3.76 7.05 34 61.9 54.4 134 65.6 204 0.234 1.42 0.234 1.42 0.473 2.86 1.8 11.1 3.01 22.2 4.15 33.3 0.123 1.2 0.247 2.4 0.374 3.63 1.87 19.1 2.24 38 2.25 57.2 0.00101 1.3 0.00201 2.59 0.00305 3.92-0.0179 34.3-2.53 68.1-7.25 102-0.15 1.11-0.301 2.21-0.456 3.35-2.42 17.5-6.32 34.5-10.5 51.7-0.299 1.23-0.598 2.47-0.906 3.74-13.7 56.3-33.6 110-61.7 161-1.23 2.24-2.42 4.5-3.59 6.78-5.35 10.5-11.7 20.2-18.1 30.1-1.7 2.65-3.37 5.31-5.03 7.98-4.99 8.03-10 15.8-15.9 23.2-1.97 2.72-3.42 5.5-4.84 8.54h2c1.36 1.64 2.69 3.32 4 5 3.34 3.52 6.88 6.63 10.6 9.67 0.447 0.44 0.895 0.879 1.36 1.33v2h2c1.26 1.45 2.46 2.96 3.62 4.49 6.54 8.16 14 15.4 21.4 22.7 1.55 1.54 3.09 3.08 4.63 4.63 4.04 4.03 8.08 8.05 12.1 12.1 4.12 4.1 8.23 8.2 12.3 12.3 6.64 6.62 13.3 13.2 19.9 19.8 2.58 2.57 5.16 5.14 7.74 7.72 1.55 1.55 3.1 3.08 4.65 4.62 0.807 0.798 1.61 1.6 2.45 2.42 0.802 0.79 1.6 1.58 2.43 2.39 2.06 2.14 4.01 4.29 5.94 6.54 3.38 3.87 6.91 7.54 10.5 11.2 0.646 0.646 1.29 1.29 1.96 1.96 2.14 2.14 4.29 4.28 6.44 6.42 1.55 1.54 3.09 3.09 4.64 4.63 3.32 3.32 6.64 6.63 9.96 9.94 5.26 5.24 10.5 10.5 15.8 15.7 11.1 11.1 22.3 22.3 33.5 33.4 12 12 24.1 24 36.1 36.1 5.22 5.21 10.4 10.4 15.7 15.6 3.25 3.24 6.5 6.49 9.75 9.74 1.5 1.5 3.01 3 4.51 4.5 2.06 2.05 4.12 4.11 6.17 6.16 0.59 0.586 1.18 1.17 1.79 1.78 3.65 3.66 7.09 7.44 10.5 11.4 2.03 2.33 4.17 4.53 6.36 6.71 0.749 0.752 1.5 1.5 2.27 2.28 1.8 1.84 1.8 1.84 3.92 2.79v2c0.99 0.33 1.98 0.66 3 1v2h2c1.46 1.46 1.46 1.46 3.14 3.48 3.72 4.38 7.6 8.58 11.5 12.8 0.65 0.694 1.3 1.39 1.97 2.1 2.56 2.72 5.1 5.42 7.8 8.01 1.54 1.64 1.54 1.64 1.54 3.64h2c20.8 19.5 34.4 47.7 35.6 76.2-0.714 24.3-10 46.7-24.6 65.8l-1.9 2.51c-15.6 19-41.2 30.3-65.1 33.5-28.2 2.68-53-6.23-74.7-23.9-3.16-2.63-6.25-5.34-9.34-8.05-1.44-1.19-2.87-2.38-4.31-3.56l-2.69-2.44v-2c-0.572-0.244-1.14-0.487-1.73-0.738-2.67-1.49-4.4-3.24-6.52-5.45-3.54-3.62-7.17-7.02-11-10.3-1.66-1.45-3.26-2.86-4.73-4.51v-2c-0.572-0.244-1.14-0.487-1.73-0.738-2.67-1.49-4.4-3.24-6.52-5.45-2.78-2.85-5.57-5.57-8.62-8.12-3.49-2.98-6.56-6.28-9.62-9.69-4.23-4.71-8.63-8.97-13.5-13-1.51-1.26-3.01-2.54-4.5-3.81-0.67-0.563-1.34-1.13-2.03-1.71-1.47-1.48-1.47-1.48-1.47-3.48-0.99-0.33-1.98-0.66-3-1v-2c-0.99-0.33-1.98-0.66-3-1v-2c-0.99-0.33-1.98-0.66-3-1v-2c-0.99-0.33-1.98-0.66-3-1v-2c-0.99-0.33-1.98-0.66-3-1v-2h-2c-1.31-1.33-1.31-1.33-2.88-3.25-5.02-5.89-10.5-11.3-16-16.7-1.19-1.19-2.38-2.38-3.57-3.57-3.21-3.21-6.42-6.43-9.64-9.64-3.37-3.37-6.73-6.73-10.1-10.1-5.64-5.65-11.3-11.3-16.9-16.9-6.53-6.53-13.1-13.1-19.6-19.6-5.61-5.61-11.2-11.2-16.8-16.8-3.35-3.35-6.7-6.7-10.1-10.1-3.14-3.15-6.29-6.29-9.43-9.43-1.16-1.15-2.31-2.31-3.47-3.47-1.57-1.57-3.14-3.14-4.72-4.71-0.881-0.881-1.76-1.76-2.67-2.67-1.95-2.03-1.95-2.03-4.12-2.99v-2c-0.579-0.251-1.16-0.503-1.75-0.762-2.53-1.39-4.18-2.98-6.18-5.05-0.648-0.666-1.3-1.33-1.96-2.02l-2.1-2.17c-1.16-1.16-2.32-2.32-3.48-3.48-1.7-1.7-3.4-3.4-5.1-5.11-0.668-0.67-1.34-1.34-2.03-2.03-0.718-0.719-1.44-1.44-2.17-2.18-7.83-7.85-15.7-15.7-23.5-23.5-4.74-4.74-9.47-9.48-14.2-14.2-4.59-4.6-9.18-9.19-13.8-13.8-1.74-1.75-3.49-3.49-5.23-5.24-2.44-2.45-4.89-4.9-7.34-7.34-0.711-0.715-1.42-1.43-2.16-2.17-3.94-3.93-7.98-7.69-12.2-11.3-2.74-2.4-5.26-4.98-7.8-7.58-4.64 1.51-8.04 4.2-11.8 7.19-9.63 7.41-19.9 13.7-30.3 20-2.66 1.62-5.31 3.27-7.96 4.91-12.6 7.76-25.6 14.6-38.8 21.2-2.84 1.45-5.66 2.92-8.48 4.4-71.4 37.2-154 58.6-248 68.2-1.16 0.0964-2.32 0.193-3.51 0.292-13.6 0.968-27.3 0.895-40.9 0.893-2.83-8.06e-5 -5.66 0.00677-8.49 0.0205-25.3 0.121-50.5-0.791-75.6-4.02-0.67-0.0843-1.34-0.169-2.03-0.255-59.1-7.46-120-21.3-175-44.5-3.16-1.33-6.32-2.64-9.49-3.95-14.9-6.13-29.5-12.4-43.6-20.2-3.66-2-7.38-3.89-11.1-5.79-10-5.15-19.8-10.5-29.3-16.5l-2.87-1.8c-11.7-7.35-23.3-14.7-34.1-23.2-2.54-1.94-5.09-3.88-7.64-5.81-2.77-2.1-5.53-4.21-8.3-6.32-2.93-2.24-5.87-4.47-8.81-6.7-11.6-8.78-22.5-18.4-33.2-28.2-1.67-1.5-3.33-3-5-4.5-2.55-2.29-5.1-4.59-7.64-6.89-5.26-4.77-5.26-4.77-10.7-9.36-2.15-1.8-4.12-3.65-6.08-5.64-1.99-2-4-3.99-6-5.98-1.66-1.65-3.32-3.3-4.98-4.95l-2.5-2.47c-4.36-4.34-8.57-8.75-12.6-13.4-2.19-2.54-4.5-4.97-6.8-7.41-4.51-4.86-8.65-9.93-12.7-15.2-2.87-3.71-5.82-7.32-8.86-10.9-6.82-8.12-13-16.7-19.2-25.3-0.486-0.669-0.971-1.34-1.47-2.03-4.98-6.86-9.82-13.8-14.5-20.9-1.42-2.15-2.85-4.28-4.3-6.4-7.45-10.9-14.2-22.2-20.7-33.7-0.331-0.575-0.661-1.15-1-1.74-6.26-10.9-12.1-22-17.7-33.2-0.433-0.861-0.866-1.72-1.31-2.61-7.84-15.7-14.6-31.6-20.7-48-1.13-3-2.3-5.98-3.5-8.96-9.73-24.1-15.9-49.4-22.1-74.6-0.373-1.52-0.373-1.52-0.754-3.06-4.7-19.2-9.32-38.5-12.1-58.1-0.158-1.1-0.317-2.2-0.48-3.34-1.15-8.16-2.15-16.3-3.08-24.5-0.119-1.05-0.239-2.1-0.362-3.18-1.57-14.5-2.11-28.9-2.12-43.4-0.00323-1.67-0.0066-3.35-0.0101-5.02-0.00594-3.49-0.00785-6.99-0.00725-10.5 8.07e-5 -3.51-0.00677-7.02-0.0205-10.5-0.105-27.4 0.332-54.7 3.89-81.9 0.126-0.965 0.126-0.965 0.254-1.95 6.5-49.4 18.3-101 36.1-147 0.376-0.991 0.752-1.98 1.14-3 1.92-5.02 3.93-9.99 6.01-14.9 0.811-1.95 1.59-3.92 2.36-5.89 1.46-3.74 2.96-7.46 4.49-11.2 0.267-0.646 0.535-1.29 0.81-1.96 10.7-25.4 23.4-51.1 38.8-74 1.98-2.98 3.86-6.03 5.74-9.08 6.8-10.9 14.1-21.5 21.6-32 0.569-0.799 1.14-1.6 1.73-2.42 9.64-13.5 19.5-26.7 30.4-39.2 2.58-2.98 5.05-6.03 7.5-9.1 3.69-4.56 7.71-8.62 11.9-12.7 3.34-3.42 6.26-7.13 9.24-10.9 3.47-4.17 7.33-7.91 11.2-11.7l5-5c1.33-1.39 1.33-1.39 2.69-2.81 2.31-2.19 2.31-2.19 4.31-2.19 0.266-0.592 0.531-1.18 0.805-1.79 3.12-5.77 9.06-10 14-14.3 2.55-2.23 5.04-4.52 7.54-6.82 5.4-4.92 11-9.54 16.7-14.1 1.25-1.02 2.51-2.04 3.76-3.07 4.07-3.32 8.15-6.63 12.2-9.93l1.81-1.46c7.41-5.97 15-11.6 22.8-17.1 4.05-2.83 8.05-5.71 12-8.68 8.76-6.57 18-12.2 27.4-17.8l2.23-1.33c4.12-2.45 8.24-4.89 12.4-7.29 1.81-1.05 3.61-2.1 5.41-3.16 9.26-5.38 18.7-10.2 28.4-14.9 0.797-0.388 1.59-0.776 2.42-1.18 16.1-7.82 32.5-14.7 49.2-21.1 2.1-0.827 4.2-1.65 6.3-2.48 24.9-9.68 50.6-16.8 76.4-23.4 2.81-0.721 5.62-1.45 8.43-2.19 23.7-6.2 47.4-10.9 71.6-14.1 1.74-0.233 1.74-0.233 3.51-0.47 24.7-3.04 49.4-3.68 74.2-3.6zm-183 243c-0.948 0.408-1.9 0.817-2.87 1.24-12.4 5.33-24.3 11.3-36.1 17.8-0.712 0.393-1.42 0.785-2.16 1.19-11.4 6.34-22 13.6-32.6 21.2-1.94 1.38-3.9 2.73-5.87 4.06-6.62 4.47-12.9 9.23-19.1 14.3-2.93 2.39-5.86 4.66-8.98 6.79-3.03 2.12-5.04 4.51-7.3 7.45-1.73 1.5-3.51 2.96-5.31 4.38-3.92 3.14-7.54 6.35-11 9.96-1.75 1.76-3.59 3.37-5.48 4.98-10.5 9.04-19.4 19.3-28 30.1-2.28 2.69-4.72 5.12-7.21 7.61-9.37 10.8-17.6 22.2-25.6 33.9-1.29 1.89-2.6 3.77-3.92 5.65-6.76 9.76-12.4 20.1-17.9 30.5-1.53 2.84-3.09 5.66-4.66 8.47-19.8 35.5-33.3 73.7-43.3 113-0.211 0.829-0.423 1.66-0.641 2.51-2.25 8.89-4.26 17.8-5.71 26.8-0.117 0.722-0.234 1.44-0.355 2.19-2.18 14.4-2.08 28.8-2.09 43.4-0.00322 2.28-0.00659 4.57-0.0101 6.85-0.00596 4.77-0.00784 9.55-0.00725 14.3 1.01e-4 6.05-0.0135 12.1-0.0308 18.2-0.0112 4.71-0.0131 9.43-0.0126 14.1-0.00116 2.23-0.00549 4.46-0.0133 6.69-0.0582 18.3 0.647 36.5 3.93 54.6 0.167 0.932 0.335 1.86 0.507 2.83 6.14 32.7 16.9 64.4 29.8 95 0.692 1.66 0.692 1.66 1.4 3.36 6.59 15.8 14.2 30.8 22.6 45.6 0.938 1.69 1.88 3.37 2.81 5.06 12.5 22.3 27.7 43.7 45.1 62.6 2.04 2.27 3.91 4.62 5.78 7.03 9.31 11.7 20.1 22.2 30.7 32.8 0.516 0.518 1.03 1.04 1.56 1.57 5.84 5.86 11.7 11.6 18.1 16.9 0.919 0.771 0.919 0.771 1.86 1.56 13.5 11.2 27.4 21.9 42.1 31.4 1.05 0.694 2.1 1.39 3.18 2.1 9 5.91 18.3 11.3 27.6 16.6 1.85 1.07 3.69 2.17 5.52 3.28 12.3 7.39 25.6 13.1 38.7 19 0.847 0.387 1.69 0.774 2.57 1.17 32.4 14.7 68.3 25.9 103 30.8 1.13 0.166 1.13 0.166 2.29 0.334 22.7 3.24 45.7 2.83 68.6 2.8 4.24-0.00569 8.47-0.00231 12.7 0.00343 27 0.0312 53.6-0.672 80.4-4.13 1.32-0.167 1.32-0.167 2.66-0.337 33.1-4.48 69.6-17.4 99.3-32.2 3.81-1.9 7.67-3.68 11.6-5.42 15.8-7.1 30.7-15 45.5-24 1.51-0.907 3.01-1.81 4.52-2.72 9.21-5.59 17.9-11.8 26.5-18.3 0.784-0.592 1.57-1.18 2.38-1.79 10.5-8.03 20.8-16.4 30.6-25.2 0.831-0.74 1.66-1.48 2.52-2.24 7.7-6.21 7.7-6.21 13.5-13.9 1.25-2.41 2.47-2.72 4.94-3.81 5.57-2.98 8.75-7.22 12.6-12.1 2.17-2.63 4.41-4.99 6.86-7.36 4.45-4.35 8.33-9.02 12.2-13.9 1.43-1.77 2.88-3.53 4.34-5.28 7.83-9.45 15.1-19.2 22-29.3 0.445-0.655 0.89-1.31 1.35-1.98 37-54.8 67.5-122 74.7-188 0.17-1.39 0.34-2.78 0.511-4.17 1.72-14.6 1.97-29.3 2.15-44 0.0264-2.07 0.0557-4.14 0.0856-6.2 0.288-20.2 0.425-40.4-0.747-60.7-0.0606-1.09-0.121-2.17-0.184-3.29-1.99-33.7-7.58-67.3-18.6-99.2-0.91-2.64-1.8-5.28-2.68-7.92-4.21-12.5-9.25-24.5-14.8-36.5-0.419-0.918-0.839-1.84-1.27-2.78-15.5-34-33.9-66.1-57.5-95.3-0.708-0.901-1.42-1.8-2.14-2.73-3.94-5.01-8.05-9.79-12.4-14.5-1.35-1.53-2.68-3.09-3.91-4.72-6.55-8.63-14.3-16.1-21.9-23.7-2.42-2.41-4.84-4.84-7.25-7.26-7.82-7.82-15.6-15.3-24.4-22.1-1.84-1.56-3.67-3.12-5.5-4.69-14.9-12.4-31-23.2-47.5-33.3-0.782-0.48-1.56-0.96-2.37-1.45-7.95-4.85-16-9.38-24.4-13.4-3.68-1.79-7.3-3.64-10.9-5.62-31.5-17.3-66.7-28.8-102-37.5-0.723-0.182-1.45-0.365-2.19-0.552-14.6-3.65-29.4-6.48-44.5-7.51-1.09-0.0778-2.19-0.156-3.32-0.236-18-1.16-36.2-1.34-54.2-1.6-2.45-0.0369-4.9-0.0803-7.36-0.127-64.3-1.18-126 13.4-184 39.1z" fill="#000002"/>
</svg>
