<?xml version="1.0" encoding="UTF-8"?>
<svg version="1.1" viewBox="0 0 1600 1600" width="1280" height="1280" xmlns="http://www.w3.org/2000/svg">
<path transform="translate(220 444)" d="m0 0c6.36 0.0155 12.7 0.00171 19.1-0.00822 11.1-0.0134 22.3-0.00852 33.4 0.00901 11.9 0.0187 23.9 0.0264 35.8 0.0208 0.756-3.44e-4 1.51-6.89e-4 2.29-0.00104 3.86-0.0018 7.71-0.00378 11.6-0.00582 27.9-0.0143 55.7-0.00426 83.6 0.0192 27.6 0.0232 55.2 0.0368 82.8 0.0375 1.73 5.37e-5 3.47 1.08e-4 5.2 1.62e-4 6.97 1.98e-4 13.9 3.18e-4 20.9 3.42e-4 19.5 8.41e-5 39 0.00182 58.5 0.00475 0.887 1.33e-4 1.77 2.65e-4 2.69 4.02e-4 44.1 0.00675 88.1 0.0338 132 0.0613 59 0.0368 118 0.057 177 0.0598 1.87 9.2e-5 3.73 1.84e-4 5.6 2.77e-4 3.73 1.85e-4 7.45 3.68e-4 11.2 5.48e-4 8.36 4.05e-4 16.7 8.16e-4 25.1 0.00125 1.85 9.46e-5 3.7 1.87e-4 5.55 2.78e-4 49.5 0.00244 98.9 0.015 148 0.0317 0.864 2.9e-4 1.73 5.81e-4 2.62 8.8e-4 7.81 0.00263 15.6 0.00528 23.4 0.00801 19 0.00663 38 0.0123 56.9 0.0152 0.855 1.31e-4 1.71 2.61e-4 2.59 3.96e-4 3.44 5.27e-4 6.89 0.00105 10.3 0.00157 32 0.00488 63.9 0.0165 95.9 0.0409 3.07 0.00232 6.14 0.00461 9.2 0.00689 0.753 5.61e-4 1.51 0.00112 2.28 0.0017 11.9 0.00871 23.8 0.0108 35.7 0.0102 11.7-4.88e-4 23.4 0.00641 35.1 0.0205 6.26 0.00736 12.5 0.0116 18.8 0.00712 5.7-0.00403 11.4 0.00123 17.1 0.0137 2.04 0.00288 4.08 0.00248 6.13-0.00174 9.9-0.0187 19.7 0.19 29.6 1.15 0.791 0.0764 1.58 0.153 2.4 0.232 34.5 3.74 65.8 21.9 90.4 45.5 1.26 1.21 2.55 2.39 3.83 3.57 11.1 10.5 19.5 23.4 26.6 36.8 0.335 0.618 0.67 1.24 1.01 1.87 12.7 23.6 18.2 48.7 18.1 75.4 0.00263 1.95 0.00263 1.95 0.00531 3.93 0.0047 3.59 0.00324 7.18 7.22e-4 10.8-0.00164 3.91 0.00251 7.82 0.00591 11.7 0.00515 6.85 0.00657 13.7 0.00554 20.5-0.00153 10.2 0.00264 20.4 0.00787 30.5 0.00967 19.2 0.0125 38.5 0.0131 57.7 4.6e-4 14.9 0.00252 29.7 0.0057 44.6 8.98e-4 4.28 0.00179 8.56 0.00267 12.8 2.21e-4 1.06 4.42e-4 2.13 6.7e-4 3.22 0.00615 29.9 0.0101 59.8 0.00966 89.8-1.56e-5 1.13-3.12e-5 2.26-4.72e-5 3.42-8.31e-5 5.72-1.82e-4 11.4-2.85e-4 17.1-2.99e-5 1.7-2.99e-5 1.7-6.04e-5 3.44-4.04e-5 2.3-8.22e-5 4.59-1.25e-4 6.89-6.13e-4 35.7 0.00689 71.4 0.0206 107 0.0154 40.1 0.024 80.3 0.023 120-7.46e-5 4.28-1.23e-4 8.56-1.54e-4 12.8-1.17e-5 1.05-2.33e-5 2.11-3.53e-5 3.19-3.08e-5 17 0.00635 33.9 0.015 50.9 0.00848 17 0.00946 34.1 0.00289 51.1-0.00369 10.1-0.00187 20.2 0.00794 30.4 0.00601 6.77 0.00469 13.5-0.00247 20.3-0.00387 3.85-0.00468 7.7 0.00346 11.6 0.0366 18.5 0.0366 36.7-4.82 54.7-0.255 0.96-0.511 1.92-0.774 2.91-5.62 20.1-15.1 38.2-27.7 54.8-0.962 1.39-1.92 2.79-2.88 4.19-0.701 0.928-1.4 1.86-2.12 2.81h-2c-0.409 0.895-0.409 0.895-0.827 1.81-1.87 3.49-4.63 5.99-7.42 8.75-0.622 0.617-1.24 1.23-1.88 1.87-9.95 9.71-20.8 17.7-32.9 24.6l-3.45 2.02c-23.6 13.5-51 19.9-78 19.7-2.16 0.00802-4.33 0.0186-6.49 0.0316-5.9 0.0279-11.8 0.019-17.7 0.00361-5.79-0.00908-11.6 0.0103-17.4 0.0286-12 0.0369-24 0.0455-36 0.0383-12.2-0.00721-24.4-0.00146-36.6 0.0197-1.16 2e-3 -1.16 2e-3 -2.35 0.00405-3.16 0.00548-6.32 0.011-9.47 0.0167-31.4 0.0563-62.8 0.0758-94.3 0.0791-26.6 0.00283-53.3 0.016-79.9 0.0401-4.71 0.00425-9.42 0.00841-14.1 0.0126-0.937 8.29e-4 -1.87 0.00166-2.84 0.00251-2.85 0.00252-5.69 0.00503-8.54 0.00754-1.41 0.00125-1.41 0.00125-2.86 0.00253-89.1 0.0787-178 0.0847-267 0.0716-30-0.00438-60.1-0.00392-90.1 4.55e-4 -87.2 0.0126-174 0.00601-261-0.0765-7.18-0.00679-14.4-0.0135-21.5-0.0201-1.76-0.00163-3.53-0.00327-5.29-0.00492-25.9-0.0242-51.9-0.0298-77.8-0.0193-23.8 0.00956-47.6-0.00297-71.4-0.048-12.9-0.0239-25.9-0.0296-38.8-0.00661-8.45 0.0131-16.9 0.00109-25.4-0.0319-4.71-0.0177-9.43-0.0254-14.1-0.0011-48.9 0.233-91.1-14.8-127-48.9-0.833-0.796-0.833-0.796-1.68-1.61-26.3-25.6-44.4-63.7-45-100-0.0332-1.58-0.0666-3.15-0.1-4.73-0.51-26.5-0.362-53-0.352-79.5 0.00327-8.69 5.66e-4 -17.4-0.0022-26.1-0.00523-17-0.00482-34.1-0.00192-51.1 0.00253-14.9 0.00317-29.8 0.00198-44.7-7.64e-5 -0.993-1.53e-4 -1.99-2.31e-4 -3.01-3.11e-4 -4.03-6.3e-4 -8.06-9.6e-4 -12.1-0.00305-37.7-2.98e-4 -75.5 0.0051-113 0.00474-33.4 0.00432-66.9-4.61e-4 -100-0.00537-37.7-0.00747-75.3-0.00439-113 3.21e-4 -4.02 6.34e-4 -8.05 9.43e-4 -12.1 7.91e-5 -0.991 1.58e-4 -1.98 2.4e-4 -3 0.00113-14.9-1.82e-4 -29.8-0.00272-44.7-0.00287-16.9-0.00211-33.9 0.00328-50.8 0.00266-8.63 0.00378-17.3 3.51e-4 -25.9-0.00721-19.9 0.00919-39.9 0.133-59.8 0.0064-1.06 0.0128-2.13 0.0194-3.22 0.0364-5.44 0.0946-10.9 0.198-16.3 0.0262-1.46 0.047-2.92 0.0609-4.39 0.414-39.1 22.2-74.9 48.6-102 5.96-5.81 12.4-10.9 19.1-15.8 0.589-0.433 1.18-0.867 1.79-1.31 15.2-11 32.2-18.5 50.2-23.7 0.757-0.224 1.51-0.449 2.29-0.68 22.4-6.36 45.9-5.02 69-4.94z" fill="#000002"/>
<path transform="translate(378 266)" d="m0 0c69.6-0.177 139-0.236 209-0.278 4-0.00242 8.01-0.00489 12-0.00739 52-0.0325 104-0.0611 156-0.0787 11.5-0.00388 22.9-0.0079 34.4-0.012 2.16-7.66e-4 4.32-0.00153 6.47-0.00229 45.7-0.0162 91.5-0.0536 137-0.103 33.6-0.0366 67.2-0.0703 101-0.0825 0.69-2.54e-4 1.38-5.08e-4 2.09-7.7e-4 15.1-0.00551 30.3-0.00936 45.4-0.0116 6.09-9.38e-4 12.2-0.00209 18.3-0.00331 0.666-1.28e-4 1.33-2.55e-4 2.02-3.86e-4 22.1-0.00433 44.1-0.0289 66.2-0.0624 21.4-0.032 42.9-0.042 64.3-0.0296 12.7 0.00674 25.4-0.00321 38.2-0.0371 8.49-0.021 17-0.0202 25.5-0.00167 4.84 0.00992 9.67 0.0105 14.5-0.0157 4.41-0.0236 8.81-0.0192 13.2 0.0069 1.58 0.00455 3.15-7.79e-4 4.73-0.0177 14.6-0.146 28 3.42 39.6 12.8 0.83 0.657 1.66 1.31 2.52 1.99 9.83 8.27 17.8 20.3 20.5 33 1.47 18.5-0.281 33.9-12 49-9.77 11.2-22.8 21.2-38.1 22.5-4.83 0.24-9.65 0.202-14.5 0.168-1.87 0.00522-3.75 0.0126-5.62 0.022-5.14 0.0194-10.3 0.00784-15.4-0.00889-5.6-0.0127-11.2 0.00362-16.8 0.0162-9.81 0.0181-19.6 0.0175-29.4 0.00476-10.5-0.0136-21-0.0166-31.6-0.00631-0.665 6.46e-4 -1.33 0.00129-2.02 0.00196-2.71 0.00267-5.42 0.00541-8.13 0.00825-25.2 0.0264-50.4 0.0282-75.6 0.0143-0.747-4.14e-4 -1.49-8.28e-4 -2.26-0.00125-0.748-4.15e-4 -1.5-8.29e-4 -2.27-0.00126-22.8-0.0126-45.6-0.0159-68.4-0.00989-1.53 3.87e-4 -3.05 7.73e-4 -4.58 0.00116-6.13 0.00155-12.3 0.00315-18.4 0.0048-17.1 0.00458-34.3 0.00744-51.4 0.00893-1.17 1.02e-4 -1.17 1.02e-4 -2.37 2.07e-4 -24.9 0.00205-49.8-0.00359-74.6-0.0145-0.807-3.51e-4 -1.61-7.02e-4 -2.44-0.00106-13.1-0.00572-26.2-0.0118-39.3-0.018-52-0.0243-104-0.0232-156 0.00115-13.1 0.00611-26.2 0.0122-39.3 0.0179-0.806 3.52e-4 -1.61 7.04e-4 -2.44 0.00107-24.9 0.0108-49.7 0.0154-74.6 0.0132-0.78-6.79e-5 -1.56-1.36e-4 -2.36-2.06e-4 -17.1-0.00156-34.3-0.00473-51.4-0.00935-6.13-0.00165-12.3-0.00321-18.4-0.00475-1.52-3.87e-4 -3.05-7.81e-4 -4.57-0.00118-22.8-0.00597-45.6-8.88e-4 -68.4 0.0117-1.12 6.21e-4 -1.12 6.21e-4 -2.26 0.00125-1.12 6.2e-4 -1.12 6.2e-4 -2.26 0.00125-25.1 0.0138-50.3 0.00871-75.4-0.0177-2.7-0.00276-5.4-0.00545-8.1-0.00807-0.663-6.51e-4 -1.33-0.0013-2.01-0.00197-11.1-0.0105-22.3-0.00119-33.4 0.0133-9.68 0.0112-19.4 0.00426-29-0.0175-5.52-0.0119-11-0.0159-16.6 0.00203-5.02 0.0162-10 0.00926-15.1-0.0159-1.8-0.00503-3.61-0.00173-5.41 0.011-17.7 0.116-33.1-4.88-46.3-17.4-13.2-13.9-17.2-28.2-17-46.9 0.525-14.7 7.13-27 17-37.8 14.1-13.1 29.2-16.2 47.7-16.2 1.93-0.0143 3.87-0.0303 5.8-0.0477 5.47-0.0435 10.9-0.0607 16.4-0.0737 4.9-0.0149 9.81-0.0444 14.7-0.0734 18.1-0.106 36.2-0.153 54.3-0.194 5.53-0.0126 11.1-0.0266 16.6-0.0408z" fill="#000002"/>
<path transform="translate(762 87.9)" d="m0 0c20.9 0.00436 41.7 0.00394 62.6-4.57e-4 69.1-0.0145 138 0.00456 207 0.101 12.2 0.0168 24.3 0.032 36.5 0.0417 23.8 0.0194 47.7 0.0494 71.5 0.13 9.51 0.0319 19 0.057 28.5 0.0598 7.79 0.00239 15.6 0.0212 23.4 0.0632 3.88 0.0205 7.76 0.0334 11.6 0.0244 4.15-0.00944 8.3 0.0196 12.4 0.0526 1.19-0.00882 2.37-0.0176 3.59-0.0267 7.9 0.108 13.7 1.89 20.6 5.68 1.04 0.562 2.09 1.12 3.16 1.7 14.9 9.36 24.5 22.5 29.1 39.5 3.06 15.6-0.168 30.3-8.25 43.8-9.13 13.2-22.8 24-39 27-4.71 0.301-9.42 0.276-14.1 0.263-1.46 0.0033-2.92 0.00748-4.37 0.0124-4.02 0.0111-8.03 0.00979-12 0.00644-4.37-0.00146-8.73 0.00858-13.1 0.0172-8.66 0.0152-17.3 0.0195-26 0.0207-10.4 0.00183-20.7 0.0152-31.1 0.0287-25.1 0.0321-50.2 0.0439-75.2 0.0535-11.9 0.00467-23.7 0.0119-35.6 0.0194-40.6 0.0257-81.2 0.0471-122 0.054-2.55 4.43e-4 -5.1 8.87e-4 -7.65 0.00133-2.56 4.41e-4 -5.11 8.82e-4 -7.67 0.00132-5.13 8.85e-4 -10.3 0.00178-15.4 0.00268-1.27 2.19e-4 -2.54 4.38e-4 -3.85 6.63e-4 -41.2 0.00726-82.4 0.0391-124 0.0857-43.6 0.0492-87.1 0.0766-131 0.079-4.78 3.43e-4 -9.57 7.74e-4 -14.3 0.00127-1.18 1.12e-4 -2.36 2.23e-4 -3.57 3.38e-4 -19 0.0023-37.9 0.0243-56.9 0.0534-19.1 0.0287-38.1 0.0352-57.2 0.0191-11.3-0.00891-22.6-0.0012-33.9 0.0305-7.56 0.0195-15.1 0.0171-22.7-0.00287-4.31-0.0108-8.61-0.0122-12.9 0.013-3.93 0.0228-7.85 0.0175-11.8-0.00933-1.4-0.00483-2.81 1.54e-4 -4.21 0.0168-14.9 0.165-27.6-4.39-39.2-13.8-0.821-0.614-1.64-1.23-2.49-1.86-12.4-10.5-18.2-25.4-19.8-41.1-0.624-15.3 4.75-29.9 14.8-41.3 1.5-1.58 3.02-3.14 4.56-4.69 0.541-0.565 1.08-1.13 1.64-1.71 7.08-6.75 19.5-13.5 29.4-13.6 1.5-0.0165 1.5-0.0165 3.04-0.0333 1.1-0.00196 2.2-0.00393 3.33-0.00595 1.18-0.00984 2.36-0.0197 3.57-0.0298 3.3-0.0253 6.6-0.0416 9.91-0.0539 3.63-0.0156 7.26-0.0421 10.9-0.0669 7.31-0.0477 14.6-0.0834 21.9-0.115 6.17-0.0267 12.3-0.0576 18.5-0.0907 90.6-0.482 181-0.472 317-0.456z" fill="#000002"/>
</svg>
