<?xml version="1.0" encoding="UTF-8"?>
<!DOCTYPE svg PUBLIC "-//W3C//DTD SVG 1.1//EN" "http://www.w3.org/Graphics/SVG/1.1/DTD/svg11.dtd">
<svg xmlns="http://www.w3.org/2000/svg" version="1.1" width="512px" height="512px" style="shape-rendering:geometricPrecision; text-rendering:geometricPrecision; image-rendering:optimizeQuality; fill-rule:evenodd; clip-rule:evenodd" xmlns:xlink="http://www.w3.org/1999/xlink">
<g><path style="opacity:0.982" fill="#000000" d="M 457.5,80.5 C 482.19,79.0255 496.19,90.5255 499.5,115C 499.184,122.95 496.684,130.117 492,136.5C 396.167,232.333 300.333,328.167 204.5,424C 189.919,432.933 175.586,432.6 161.5,423C 114,375.5 66.5,328 19,280.5C 7.52078,262.225 9.68744,245.725 25.5,231C 39.5,222.333 53.5,222.333 67.5,231C 106.014,269.68 144.68,308.18 183.5,346.5C 269.986,260.514 356.32,174.347 442.5,88C 447.324,84.9215 452.324,82.4215 457.5,80.5 Z"/></g>
</svg>
