<?xml version="1.0" standalone="no"?>
<!DOCTYPE svg PUBLIC "-//W3C//DTD SVG 20010904//EN"
 "http://www.w3.org/TR/2001/REC-SVG-20010904/DTD/svg10.dtd">
<svg version="1.0" xmlns="http://www.w3.org/2000/svg"
 width="512.000000pt" height="512.000000pt" viewBox="0 0 512.000000 512.000000"
 preserveAspectRatio="xMidYMid meet">

<g transform="translate(0.000000,512.000000) scale(0.100000,-0.100000)"
fill="#000000" stroke="none">
<path d="M3241 4935 c-1324 -149 -1651 -188 -1680 -203 -20 -10 -49 -38 -66
-61 l-30 -43 -3 -1654 c-1 -910 -5 -1654 -7 -1654 -3 0 -31 13 -63 29 -280
141 -644 148 -926 17 -303 -139 -482 -400 -463 -671 22 -315 277 -570 664
-667 74 -19 115 -22 253 -22 145 1 177 4 263 27 315 84 535 273 623 537 18 52
19 124 22 1487 l2 1433 23 4 c12 3 654 75 1427 161 773 85 1420 157 1438 160
l32 6 0 -1070 0 -1070 -94 45 c-503 238 -1139 38 -1323 -416 -163 -405 176
-853 706 -930 118 -18 332 -8 441 20 312 80 554 297 620 556 20 76 20 119 20
2047 l0 1971 -21 44 c-29 60 -82 93 -156 97 -33 2 -753 -74 -1702 -180z m1507
-477 l-3 -273 -1407 -156 c-774 -86 -1430 -159 -1458 -162 l-50 -6 0 273 0
274 113 12 c61 6 704 78 1427 160 723 81 1330 148 1348 149 l32 1 -2 -272z
m-364 -3018 c222 -56 366 -192 366 -344 0 -77 -23 -127 -86 -192 -220 -225
-693 -226 -914 -2 -60 61 -83 107 -88 181 -6 80 17 136 87 206 112 114 257
168 456 170 69 0 124 -5 179 -19z m-3274 -371 c151 -41 279 -132 326 -234 106
-226 -159 -465 -517 -465 -194 0 -338 51 -455 162 -69 65 -98 131 -92 212 5
77 29 126 89 186 145 145 411 202 649 139z"/>
</g>
</svg>
