<?xml version="1.0" standalone="no"?>
<!DOCTYPE svg PUBLIC "-//W3C//DTD SVG 20010904//EN"
 "http://www.w3.org/TR/2001/REC-SVG-20010904/DTD/svg10.dtd">
<svg version="1.0" xmlns="http://www.w3.org/2000/svg"
 width="512.000000pt" height="512.000000pt" viewBox="0 0 512.000000 512.000000"
 preserveAspectRatio="xMidYMid meet">

<g transform="translate(0.000000,512.000000) scale(0.100000,-0.100000)"
fill="#000000" stroke="none">
<path d="M1562 4558 c-157 -15 -336 -91 -457 -193 -163 -138 -258 -283 -321
-490 -26 -83 -28 -103 -28 -270 -1 -159 2 -189 22 -259 95 -327 319 -571 615
-668 99 -32 106 -33 267 -33 153 1 171 3 250 29 249 83 433 243 554 483 208
415 86 954 -279 1226 -186 139 -393 197 -623 175z m242 -314 c94 -23 173 -71
262 -159 134 -133 197 -288 197 -485 1 -196 -62 -350 -198 -486 -123 -124
-240 -174 -412 -174 -258 0 -475 166 -570 435 -25 74 -28 91 -27 225 0 131 2
153 27 226 49 148 164 291 290 362 133 76 274 94 431 56z"/>
<path d="M3605 4419 c-169 -25 -359 -132 -468 -264 -132 -158 -197 -343 -197
-559 0 -313 164 -593 430 -735 111 -59 210 -83 345 -84 133 0 217 19 332 75
199 96 348 279 419 513 24 80 27 106 27 235 0 129 -3 155 -26 233 -123 404
-474 642 -862 586z m197 -300 c157 -33 298 -158 359 -318 108 -283 -33 -610
-306 -706 -70 -25 -202 -23 -277 4 -153 53 -269 178 -318 342 -25 84 -27 227
-4 307 53 183 186 321 354 366 67 18 123 19 192 5z"/>
<path d="M3470 2601 c-273 -53 -517 -177 -717 -366 l-92 -86 -83 56 c-402 272
-911 352 -1381 216 -519 -150 -933 -546 -1106 -1056 -69 -205 -91 -363 -91
-646 l0 -169 1655 0 1655 0 0 205 0 205 906 0 907 0 -6 223 c-6 245 -22 343
-78 504 -162 458 -554 801 -1039 908 -117 26 -409 29 -530 6z m441 -296 c272
-47 525 -205 696 -435 111 -149 184 -340 208 -547 l6 -53 -784 0 -783 0 -28
88 c-56 172 -161 363 -283 514 l-54 68 22 29 c73 99 291 241 454 296 157 53
378 70 546 40z m-2116 -125 c162 -18 295 -55 444 -126 273 -129 523 -380 646
-650 69 -150 125 -378 125 -506 l0 -48 -1355 0 -1355 0 0 23 c0 56 22 209 41
282 165 657 791 1098 1454 1025z"/>
</g>
</svg>
