<?xml version="1.0" encoding="UTF-8"?>
<!DOCTYPE svg PUBLIC "-//W3C//DTD SVG 1.1//EN" "http://www.w3.org/Graphics/SVG/1.1/DTD/svg11.dtd">
<svg xmlns="http://www.w3.org/2000/svg" version="1.1" width="8333px" height="8333px" style="shape-rendering:geometricPrecision; text-rendering:geometricPrecision; image-rendering:optimizeQuality; fill-rule:evenodd; clip-rule:evenodd" xmlns:xlink="http://www.w3.org/1999/xlink">
<g><path style="opacity:0.306" fill="#fe3837" d="M 3727.5,0.5 C 3919.5,0.269924 4111.5,0.769924 4303.5,2C 4403.51,2.56311 4503.51,3.89645 4603.5,6C 4619.06,13.1117 4635.06,19.1117 4651.5,24C 4682.17,25.3333 4712.83,26.6667 4743.5,28C 4757.31,30.3819 4770.65,34.3819 4783.5,40C 4808.14,42.0179 4832.8,43.6845 4857.5,45C 4865.66,46.2376 4871.99,50.2376 4876.5,57C 4902.17,58.6298 4927.84,60.2965 4953.5,62C 4984.9,74.734 5017.57,80.9006 5051.5,80.5C 5051.5,84.5 5051.5,88.5 5051.5,92.5C 5099.76,96.6547 5147.43,104.488 5194.5,116C 5213.58,127.27 5234.24,132.937 5256.5,133C 5269.09,146.196 5284.25,150.696 5302,146.5C 5316.91,147.537 5329.08,153.704 5338.5,165C 5354.18,166.744 5369.85,168.577 5385.5,170.5C 5387.76,175.26 5391.43,178.427 5396.5,180C 5410.77,182.706 5425.11,185.039 5439.5,187C 5442.38,192.214 5446.71,195.547 5452.5,197C 5464.39,199.649 5476.39,201.649 5488.5,203C 5504.76,219.42 5524.26,225.587 5547,221.5C 5547.5,225.821 5547.67,230.154 5547.5,234.5C 5564.2,236.338 5580.87,238.505 5597.5,241C 5600.72,244.896 5602.38,249.396 5602.5,254.5C 5626.17,251.35 5646.17,258.35 5662.5,275.5C 5676.32,268.831 5685.15,272.831 5689,287.5C 5707.06,290.82 5725.23,293.82 5743.5,296.5C 5743.5,300.833 5743.5,305.167 5743.5,309.5C 5754.5,309.5 5765.5,309.5 5776.5,309.5C 5776.11,315.107 5777.77,319.941 5781.5,324C 5792.42,325.94 5803.42,326.773 5814.5,326.5C 5814.2,330.767 5814.54,334.934 5815.5,339C 5832.97,343.795 5850.64,347.628 5868.5,350.5C 5868.5,354.833 5868.5,359.167 5868.5,363.5C 5879.5,363.5 5890.5,363.5 5901.5,363.5C 5901.5,369.167 5901.5,374.833 5901.5,380.5C 5912.18,379.809 5922.84,380.309 5933.5,382C 5935.67,382.833 5937.17,384.333 5938,386.5C 5939.2,389.726 5939.7,393.059 5939.5,396.5C 5950.5,396.5 5961.5,396.5 5972.5,396.5C 5972.11,401.818 5973.44,406.652 5976.5,411C 5987.7,413.874 5999.04,416.041 6010.5,417.5C 6010.5,421.833 6010.5,426.167 6010.5,430.5C 6021.54,431.588 6032.54,432.921 6043.5,434.5C 6042.78,439.914 6044.11,444.747 6047.5,449C 6057.61,450.205 6067.61,451.872 6077.5,454C 6080.15,458.096 6081.48,462.596 6081.5,467.5C 6101.13,464.318 6115.8,471.318 6125.5,488.5C 6134.15,487.226 6142.82,487.226 6151.5,488.5C 6151.5,494.167 6151.5,499.833 6151.5,505.5C 6162.68,505.439 6173.68,506.773 6184.5,509.5C 6185.17,513.833 6185.83,518.167 6186.5,522.5C 6202.31,530.602 6218.64,537.435 6235.5,543C 6238.88,546.482 6240.22,550.649 6239.5,555.5C 6250.54,556.588 6261.54,557.921 6272.5,559.5C 6271.89,565.164 6273.55,569.998 6277.5,574C 6286.69,575.396 6295.19,578.563 6303,583.5C 6304.63,582.711 6306.13,581.711 6307.5,580.5C 6309.97,584.09 6310.97,588.09 6310.5,592.5C 6315.83,592.5 6321.17,592.5 6326.5,592.5C 6326.11,597.818 6327.44,602.652 6330.5,607C 6341.55,610.644 6352.89,612.811 6364.5,613.5C 6364.33,619.176 6364.5,624.843 6365,630.5C 6380.09,640.14 6396.59,645.473 6414.5,646.5C 6413.27,653.208 6415.27,658.708 6420.5,663C 6435.32,671.91 6450.99,678.91 6467.5,684C 6467.72,688.887 6469.39,693.22 6472.5,697C 6488.22,705.297 6504.56,712.13 6521.5,717.5C 6522.19,723.387 6522.85,729.22 6523.5,735C 6539.97,743.899 6557.3,750.566 6575.5,755C 6576.47,760.407 6576.81,765.907 6576.5,771.5C 6582.17,771.5 6587.83,771.5 6593.5,771.5C 6592.68,777.526 6594.34,782.693 6598.5,787C 6614.74,793.786 6630.74,801.119 6646.5,809C 6647.29,812.076 6647.79,815.242 6648,818.5C 6649.87,823.294 6653.37,824.794 6658.5,823C 6659.5,822.5 6660.5,822 6661.5,821.5C 6663.09,827.797 6666.09,833.297 6670.5,838C 6685.12,848.145 6700.79,856.478 6717.5,863C 6718.29,866.411 6718.79,869.911 6719,873.5C 6720.1,876.265 6722.1,877.931 6725,878.5C 6727.69,877.287 6730.52,876.62 6733.5,876.5C 6734.13,883.563 6736.8,889.73 6741.5,895C 6744.69,896.901 6747.19,896.067 6749,892.5C 6758.15,907.826 6771.65,916.16 6789.5,917.5C 6789.5,921.833 6789.5,926.167 6789.5,930.5C 6794.83,930.5 6800.17,930.5 6805.5,930.5C 6805.33,934.514 6805.5,938.514 6806,942.5C 6806.35,944.848 6807.51,946.681 6809.5,948C 6813.77,949.71 6818.11,951.21 6822.5,952.5C 6824.77,964.096 6831.77,969.096 6843.5,967.5C 6843.5,971.833 6843.5,976.167 6843.5,980.5C 6849.21,980.171 6854.87,980.505 6860.5,981.5C 6859.78,985.484 6860.45,989.317 6862.5,993C 6877.99,1004.25 6893.99,1014.75 6910.5,1024.5C 6913.65,1028.62 6914.98,1033.29 6914.5,1038.5C 6919.83,1038.5 6925.17,1038.5 6930.5,1038.5C 6930.5,1044.17 6930.5,1049.83 6930.5,1055.5C 6936.17,1055.5 6941.83,1055.5 6947.5,1055.5C 6947.5,1060.83 6947.5,1066.17 6947.5,1071.5C 6953.17,1071.5 6958.83,1071.5 6964.5,1071.5C 6963.1,1080.22 6966.44,1086.05 6974.5,1089C 6978.25,1089.09 6981.92,1089.26 6985.5,1089.5C 6984.65,1093.48 6984.82,1097.48 6986,1101.5C 6987.59,1108.98 6991.26,1110.31 6997,1105.5C 6997.5,1105.83 6998,1106.17 6998.5,1106.5C 7001.12,1112.9 7004.12,1119.06 7007.5,1125C 7011.03,1125.66 7013.86,1124.49 7016,1121.5C 7017.16,1130.15 7021.16,1137.15 7028,1142.5C 7029.35,1140.98 7030.85,1139.65 7032.5,1138.5C 7034.8,1151.47 7042.47,1158.47 7055.5,1159.5C 7054.1,1171.63 7058.94,1175.63 7070,1171.5C 7071.21,1177.13 7073.21,1182.47 7076,1187.5C 7079.45,1193.06 7082.95,1193.4 7086.5,1188.5C 7087.91,1197 7092.08,1203.67 7099,1208.5C 7100.61,1207.9 7101.94,1206.9 7103,1205.5C 7104.42,1219.75 7112.25,1226.75 7126.5,1226.5C 7126.5,1231.83 7126.5,1237.17 7126.5,1242.5C 7132.17,1242.5 7137.83,1242.5 7143.5,1242.5C 7142.86,1248.81 7143.86,1254.81 7146.5,1260.5C 7150.47,1264.6 7154.14,1264.27 7157.5,1259.5C 7158.39,1268.69 7162.06,1276.52 7168.5,1283C 7170.42,1282.97 7172.08,1282.14 7173.5,1280.5C 7175.3,1294.63 7183.3,1301.63 7197.5,1301.5C 7197.5,1306.83 7197.5,1312.17 7197.5,1317.5C 7203.17,1317.5 7208.83,1317.5 7214.5,1317.5C 7214.02,1323.71 7214.85,1329.71 7217,1335.5C 7220.96,1339.53 7224.62,1339.2 7228,1334.5C 7227.49,1348.16 7233.99,1355.16 7247.5,1355.5C 7244.9,1372.04 7251.9,1379.04 7268.5,1376.5C 7268.05,1382.38 7268.88,1388.05 7271,1393.5C 7275.1,1397.59 7278.93,1397.26 7282.5,1392.5C 7283.9,1400.21 7286.4,1407.54 7290,1414.5C 7293.15,1418.15 7296.15,1417.82 7299,1413.5C 7299.87,1423.32 7304.04,1431.32 7311.5,1437.5C 7312.83,1436.5 7314.17,1435.5 7315.5,1434.5C 7316.39,1440.99 7318.55,1446.99 7322,1452.5C 7324.26,1455.37 7327.09,1457.37 7330.5,1458.5C 7332.77,1458.03 7334.77,1457.03 7336.5,1455.5C 7338.4,1462.48 7340.23,1469.48 7342,1476.5C 7345.48,1481.45 7349.15,1481.45 7353,1476.5C 7354.72,1483.32 7357.05,1489.99 7360,1496.5C 7363.33,1501.83 7366.67,1501.83 7370,1496.5C 7368.82,1510.82 7375.32,1517.82 7389.5,1517.5C 7386.52,1533.18 7392.86,1540.18 7408.5,1538.5C 7409.97,1546.76 7410.64,1555.09 7410.5,1563.5C 7415.83,1563.5 7421.17,1563.5 7426.5,1563.5C 7426.18,1570.65 7427.01,1577.65 7429,1584.5C 7432.79,1589.77 7436.62,1589.77 7440.5,1584.5C 7442.65,1591.39 7444.48,1598.39 7446,1605.5C 7450.25,1608.89 7455.09,1610.22 7460.5,1609.5C 7460.19,1617.59 7462.35,1624.92 7467,1631.5C 7470.32,1634.06 7473.49,1633.73 7476.5,1630.5C 7480.16,1636.64 7482.32,1643.31 7483,1650.5C 7486.28,1656.71 7490.11,1657.05 7494.5,1651.5C 7494.83,1651.83 7495.17,1652.17 7495.5,1652.5C 7497.11,1660.47 7498.61,1668.47 7500,1676.5C 7501.41,1678.41 7503.25,1679.75 7505.5,1680.5C 7507.77,1679.56 7509.77,1678.23 7511.5,1676.5C 7512.15,1687.46 7516.32,1696.8 7524,1704.5C 7525.02,1703.31 7526.19,1702.31 7527.5,1701.5C 7528.33,1712.66 7533,1721.83 7541.5,1729C 7544.41,1729.85 7546.74,1729.02 7548.5,1726.5C 7549.09,1726.71 7549.59,1727.04 7550,1727.5C 7551.33,1735.5 7552.67,1743.5 7554,1751.5C 7557.03,1755.24 7560.19,1755.24 7563.5,1751.5C 7564.09,1751.71 7564.59,1752.04 7565,1752.5C 7567.94,1760.26 7569.94,1768.26 7571,1776.5C 7572.41,1778.41 7574.25,1779.75 7576.5,1780.5C 7578.77,1779.56 7580.77,1778.23 7582.5,1776.5C 7583.15,1787.46 7587.31,1796.79 7595,1804.5C 7596.17,1802.38 7597.67,1801.72 7599.5,1802.5C 7600.98,1812.79 7605.15,1821.79 7612,1829.5C 7613.95,1827.01 7616.28,1826.34 7619,1827.5C 7622.47,1836.58 7623.63,1845.91 7622.5,1855.5C 7624.53,1855.66 7626.53,1855.5 7628.5,1855C 7631.56,1853.8 7634.56,1852.63 7637.5,1851.5C 7638.42,1861.64 7640.09,1871.64 7642.5,1881.5C 7646.25,1885.44 7649.75,1885.11 7653,1880.5C 7655.04,1888.71 7656.87,1897.05 7658.5,1905.5C 7662.62,1908.65 7667.29,1909.98 7672.5,1909.5C 7671.88,1918.23 7673.38,1926.56 7677,1934.5C 7681.44,1939.71 7685.94,1939.71 7690.5,1934.5C 7692.75,1944.39 7694.58,1954.39 7696,1964.5C 7700.18,1968.67 7704.01,1968.34 7707.5,1963.5C 7709.27,1971.82 7710.94,1980.15 7712.5,1988.5C 7716.54,1991.93 7721.2,1993.26 7726.5,1992.5C 7726.12,2000.96 7726.95,2009.29 7729,2017.5C 7733.33,2021.19 7738.17,2022.52 7743.5,2021.5C 7742.67,2032.16 7744.83,2042.16 7750,2051.5C 7751.41,2053.41 7753.25,2054.75 7755.5,2055.5C 7757.77,2054.56 7759.77,2053.23 7761.5,2051.5C 7761.83,2052.17 7762.17,2052.83 7762.5,2053.5C 7764.13,2063.76 7764.8,2074.1 7764.5,2084.5C 7769.83,2084.5 7775.17,2084.5 7780.5,2084.5C 7778.9,2097.19 7782.4,2108.19 7791,2117.5C 7792.33,2116.17 7793.67,2114.83 7795,2113.5C 7796.57,2123.36 7798.91,2133.03 7802,2142.5C 7805.14,2146.16 7808.97,2147.49 7813.5,2146.5C 7813.83,2147 7814.17,2147.5 7814.5,2148C 7810.42,2165.74 7817.42,2174.91 7835.5,2175.5C 7834.52,2186.53 7835.02,2197.53 7837,2208.5C 7840.49,2214.66 7844.49,2214.99 7849,2209.5C 7851.07,2220.4 7852.74,2231.4 7854,2242.5C 7858.17,2246.03 7863,2247.36 7868.5,2246.5C 7867.96,2256.64 7868.79,2266.64 7871,2276.5C 7875.44,2279.26 7880.28,2280.93 7885.5,2281.5C 7884.26,2293.11 7886.42,2304.11 7892,2314.5C 7896.06,2318.74 7899.73,2318.4 7903,2313.5C 7905.23,2324.32 7906.9,2335.32 7908,2346.5C 7911.9,2351.8 7915.9,2351.8 7920,2346.5C 7921.74,2359.15 7923.41,2371.82 7925,2384.5C 7929.22,2387.89 7934.05,2389.22 7939.5,2388.5C 7939.33,2396.84 7939.5,2405.17 7940,2413.5C 7940.41,2423.21 7945.41,2427.21 7955,2425.5C 7954.27,2439.96 7957.44,2453.46 7964.5,2466C 7968.14,2467.69 7971.31,2466.85 7974,2463.5C 7976.03,2476.1 7977.7,2488.77 7979,2501.5C 7983.27,2506.74 7987.27,2506.4 7991,2500.5C 7992.56,2514.58 7994.56,2528.58 7997,2542.5C 8000.38,2546.3 8003.88,2546.3 8007.5,2542.5C 8009.22,2555.53 8011.06,2568.53 8013,2581.5C 8016.02,2586.6 8020.52,2588.93 8026.5,2588.5C 8026.73,2603.94 8028.06,2619.27 8030.5,2634.5C 8035.56,2634.59 8040.23,2633.26 8044.5,2630.5C 8046.84,2645.74 8048.67,2661.07 8050,2676.5C 8054.27,2681.74 8058.27,2681.4 8062,2675.5C 8063.4,2690.2 8065.07,2704.87 8067,2719.5C 8069.62,2726.49 8073.29,2727.15 8078,2721.5C 8080.2,2736.73 8081.87,2752.06 8083,2767.5C 8085.86,2773.59 8090.53,2776.26 8097,2775.5C 8095.95,2794.54 8099.61,2812.54 8108,2829.5C 8110.67,2826.83 8113.33,2824.17 8116,2821.5C 8117.56,2839.85 8119.23,2858.18 8121,2876.5C 8125.03,2881.36 8128.86,2881.02 8132.5,2875.5C 8134.28,2893.18 8136.11,2910.84 8138,2928.5C 8140.53,2934.29 8144.03,2934.95 8148.5,2930.5C 8148.83,2931.17 8149.17,2931.83 8149.5,2932.5C 8151.14,2951.15 8152.64,2969.81 8154,2988.5C 8156.86,2994.68 8161.69,2997.35 8168.5,2996.5C 8167.41,3016.54 8169.58,3036.21 8175,3055.5C 8176.74,3057.62 8178.9,3058.46 8181.5,3058C 8184.1,3056.06 8185.94,3053.56 8187,3050.5C 8188.34,3073.2 8190,3095.87 8192,3118.5C 8195.98,3122.64 8199.65,3122.31 8203,3117.5C 8205.21,3141.1 8206.88,3164.76 8208,3188.5C 8209.93,3196.08 8213.93,3197.42 8220,3192.5C 8221.03,3219.39 8224.03,3246.06 8229,3272.5C 8231.95,3276.4 8234.62,3276.07 8237,3271.5C 8237.89,3297.35 8240.55,3323.02 8245,3348.5C 8245.91,3351.73 8248.08,3353.73 8251.5,3354.5C 8254.46,3352.58 8256.46,3349.91 8257.5,3346.5C 8259.17,3379.19 8261.01,3411.85 8263,3444.5C 8263.74,3447.34 8265.41,3449.34 8268,3450.5C 8270.94,3448.65 8272.94,3445.98 8274,3442.5C 8276.02,3479.14 8277.69,3515.81 8279,3552.5C 8279.88,3560.27 8283.71,3562.6 8290.5,3559.5C 8292.6,3601.82 8294.43,3644.15 8296,3686.5C 8297.2,3692.31 8298.87,3697.98 8301,3703.5C 8303.99,3704.74 8306.15,3703.74 8307.5,3700.5C 8312.93,3763.71 8316.1,3827.04 8317,3890.5C 8317.88,3893.63 8319.04,3896.63 8320.5,3899.5C 8321.81,3898.69 8322.98,3897.69 8324,3896.5C 8325.16,3931.82 8325.83,3967.15 8326,4002.5C 8326.83,4137.84 8326.5,4273.17 8325,4408.5C 8324.67,4416.17 8324.33,4423.83 8324,4431.5C 8322.98,4430.31 8321.81,4429.31 8320.5,4428.5C 8319.04,4431.37 8317.88,4434.37 8317,4437.5C 8315.98,4503.61 8312.81,4569.61 8307.5,4635.5C 8306.17,4634.5 8304.83,4633.5 8303.5,4632.5C 8300.13,4638.11 8297.63,4644.11 8296,4650.5C 8294.43,4691.18 8292.6,4731.85 8290.5,4772.5C 8283.71,4769.4 8279.88,4771.73 8279,4779.5C 8277.72,4813.53 8276.05,4847.53 8274,4881.5C 8269.74,4875.88 8266.07,4876.21 8263,4882.5C 8261.04,4915.49 8259.2,4948.49 8257.5,4981.5C 8256.51,4977.83 8254.34,4975.16 8251,4973.5C 8247.65,4974.18 8245.65,4976.18 8245,4979.5C 8240.72,5006.35 8237.88,5033.35 8236.5,5060.5C 8235.08,5058.86 8233.42,5058.03 8231.5,5058C 8228.4,5062.04 8226.23,5066.54 8225,5071.5C 8223.5,5094.18 8221.83,5116.85 8220,5139.5C 8213.93,5134.58 8209.93,5135.92 8208,5143.5C 8206.87,5165.91 8205.2,5188.24 8203,5210.5C 8199.65,5205.69 8195.98,5205.36 8192,5209.5C 8189.88,5231.79 8188.38,5254.12 8187.5,5276.5C 8184.57,5276.15 8181.74,5275.48 8179,5274.5C 8175.76,5275.41 8173.42,5277.41 8172,5280.5C 8168.98,5298.7 8167.82,5317.03 8168.5,5335.5C 8161.69,5334.65 8156.86,5337.32 8154,5343.5C 8152.63,5360.85 8151.13,5378.19 8149.5,5395.5C 8149.17,5396.17 8148.83,5396.83 8148.5,5397.5C 8144.03,5393.05 8140.53,5393.71 8138,5399.5C 8136.08,5416.81 8134.24,5434.15 8132.5,5451.5C 8130.77,5449.77 8128.77,5448.44 8126.5,5447.5C 8124.25,5448.25 8122.41,5449.59 8121,5451.5C 8119.23,5469.82 8117.56,5488.15 8116,5506.5C 8112.31,5500.4 8108.31,5500.07 8104,5505.5C 8099.38,5522.21 8096.38,5539.21 8095,5556.5C 8089.75,5553.28 8086.09,5554.62 8084,5560.5C 8081.94,5575.11 8080.27,5589.78 8079,5604.5C 8078.67,5605.17 8078.33,5605.83 8078,5606.5C 8073.31,5601 8069.65,5601.66 8067,5608.5C 8064.5,5622.81 8063.67,5637.14 8064.5,5651.5C 8058.83,5651.5 8053.17,5651.5 8047.5,5651.5C 8047.81,5666.86 8047.31,5682.2 8046,5697.5C 8045.67,5698.83 8045.33,5700.17 8045,5701.5C 8043.17,5699.67 8041.33,5697.83 8039.5,5696C 8037.08,5695.31 8034.91,5695.81 8033,5697.5C 8028.22,5711.09 8026.05,5725.09 8026.5,5739.5C 8020.52,5739.07 8016.02,5741.4 8013,5746.5C 8011.06,5759.47 8009.22,5772.47 8007.5,5785.5C 8002.8,5781.07 7998.96,5781.74 7996,5787.5C 7994.49,5800.56 7992.66,5813.56 7990.5,5826.5C 7987.38,5822.59 7984.21,5822.59 7981,5826.5C 7977.83,5840.36 7975.5,5854.36 7974,5868.5C 7969.75,5865.11 7964.91,5863.78 7959.5,5864.5C 7957.46,5876.76 7956.13,5889.09 7955.5,5901.5C 7949.84,5901.58 7945.34,5903.91 7942,5908.5C 7940.25,5920.18 7938.41,5931.85 7936.5,5943.5C 7931.14,5940.14 7927.3,5941.47 7925,5947.5C 7923.5,5958.86 7921.83,5970.2 7920,5981.5C 7917.58,5977.51 7914.41,5976.35 7910.5,5978C 7909.3,5978.9 7908.47,5980.07 7908,5981.5C 7906.91,5994.01 7905.24,6006.34 7903,6018.5C 7898.87,6014.82 7894.2,6013.82 7889,6015.5C 7886.84,6027.46 7885.01,6039.46 7883.5,6051.5C 7878,6048.32 7873.83,6049.66 7871,6055.5C 7868.79,6065.36 7867.96,6075.36 7868.5,6085.5C 7863,6084.64 7858.17,6085.97 7854,6089.5C 7851.98,6099.06 7851.14,6108.72 7851.5,6118.5C 7846.17,6118.5 7840.83,6118.5 7835.5,6118.5C 7835.5,6129.5 7835.5,6140.5 7835.5,6151.5C 7829.48,6150.78 7823.98,6152.11 7819,6155.5C 7815.68,6165.29 7813.18,6175.29 7811.5,6185.5C 7806.54,6182.19 7802.71,6183.19 7800,6188.5C 7798.76,6198.67 7796.93,6208.67 7794.5,6218.5C 7789.2,6215.14 7785.37,6216.47 7783,6222.5C 7781.12,6230.73 7780.29,6239.06 7780.5,6247.5C 7775.17,6247.5 7769.83,6247.5 7764.5,6247.5C 7764.8,6257.9 7764.13,6268.24 7762.5,6278.5C 7762.17,6279.17 7761.83,6279.83 7761.5,6280.5C 7756.96,6276.55 7752.46,6276.55 7748,6280.5C 7744.15,6288.4 7742.65,6296.73 7743.5,6305.5C 7738.5,6305.09 7734.33,6306.75 7731,6310.5C 7728.16,6320.05 7725.82,6329.71 7724,6339.5C 7720.65,6334.69 7716.98,6334.36 7713,6338.5C 7711.03,6348.45 7709.2,6358.45 7707.5,6368.5C 7704.01,6363.66 7700.18,6363.33 7696,6367.5C 7694.58,6377.61 7692.75,6387.61 7690.5,6397.5C 7684.88,6392.05 7680.05,6392.72 7676,6399.5C 7673.98,6407.24 7671.82,6414.91 7669.5,6422.5C 7664.36,6419.64 7660.53,6420.97 7658,6426.5C 7656.86,6435.02 7655.19,6443.35 7653,6451.5C 7649.75,6446.89 7646.25,6446.56 7642.5,6450.5C 7641.1,6452.98 7640.27,6455.65 7640,6458.5C 7639.5,6464.49 7639.33,6470.49 7639.5,6476.5C 7633.83,6476.5 7628.17,6476.5 7622.5,6476.5C 7622.81,6485.55 7622.31,6494.55 7621,6503.5C 7606.15,6503.86 7599.65,6511.53 7601.5,6526.5C 7596.55,6526.32 7592.05,6527.65 7588,6530.5C 7586.17,6538.82 7584.33,6547.15 7582.5,6555.5C 7580.77,6553.77 7578.77,6552.44 7576.5,6551.5C 7574.25,6552.25 7572.41,6553.59 7571,6555.5C 7569.59,6563.97 7567.76,6572.3 7565.5,6580.5C 7563.77,6578.77 7561.77,6577.44 7559.5,6576.5C 7557.25,6577.25 7555.41,6578.59 7554,6580.5C 7552.67,6588.5 7551.33,6596.5 7550,6604.5C 7549.59,6604.96 7549.09,6605.29 7548.5,6605.5C 7546.81,6603.97 7544.97,6602.64 7543,6601.5C 7538.63,6603.54 7535.63,6606.87 7534,6611.5C 7532.39,6616.45 7531.06,6621.45 7530,6626.5C 7517.06,6629.94 7511.56,6638.27 7513.5,6651.5C 7498.87,6653.73 7493.54,6662.06 7497.5,6676.5C 7492.17,6676.5 7486.83,6676.5 7481.5,6676.5C 7481.41,6684.88 7480.74,6693.22 7479.5,6701.5C 7464.25,6699.75 7457.91,6706.42 7460.5,6721.5C 7455.17,6721.77 7450.34,6723.43 7446,6726.5C 7444.48,6733.61 7442.65,6740.61 7440.5,6747.5C 7436.62,6742.23 7432.79,6742.23 7429,6747.5C 7428.26,6755.07 7425.92,6762.07 7422,6768.5C 7419.29,6765.02 7416.29,6764.69 7413,6767.5C 7410.24,6774.65 7409.41,6781.98 7410.5,6789.5C 7393.16,6786.17 7386.16,6793.17 7389.5,6810.5C 7384.17,6809.48 7379.33,6810.81 7375,6814.5C 7373.33,6821.5 7371.67,6828.5 7370,6835.5C 7366.99,6831.1 7363.33,6830.43 7359,6833.5C 7357.1,6840.81 7355.27,6848.14 7353.5,6855.5C 7349.4,6850.75 7345.57,6850.75 7342,6855.5C 7340.62,6862.36 7338.62,6869.02 7336,6875.5C 7335.59,6875.96 7335.09,6876.29 7334.5,6876.5C 7329.66,6873.33 7325.49,6874 7322,6878.5C 7319.86,6884.4 7318.02,6890.4 7316.5,6896.5C 7316.17,6896.83 7315.83,6897.17 7315.5,6897.5C 7311.3,6894.43 7307.8,6895.09 7305,6899.5C 7303.15,6905.93 7301.15,6912.26 7299,6918.5C 7295.55,6913.87 7291.88,6913.54 7288,6917.5C 7285.31,6923.3 7284.48,6929.3 7285.5,6935.5C 7279.83,6935.5 7274.17,6935.5 7268.5,6935.5C 7268.5,6942.17 7268.5,6948.83 7268.5,6955.5C 7254.56,6952.78 7247.56,6958.45 7247.5,6972.5C 7233.45,6972.56 7227.78,6979.56 7230.5,6993.5C 7216.91,6993.76 7210.58,7000.76 7211.5,7014.5C 7208.06,7009.68 7204.22,7009.35 7200,7013.5C 7198.15,7019.01 7197.15,7024.67 7197,7030.5C 7183.95,7031.38 7177.12,7038.38 7176.5,7051.5C 7162.68,7051.98 7156.35,7058.98 7157.5,7072.5C 7156.07,7071.06 7154.4,7070.06 7152.5,7069.5C 7148.07,7071.43 7145.24,7074.76 7144,7079.5C 7143.5,7082.82 7143.33,7086.15 7143.5,7089.5C 7137.83,7089.5 7132.17,7089.5 7126.5,7089.5C 7126.5,7094.83 7126.5,7100.17 7126.5,7105.5C 7116.63,7104.51 7109.8,7108.51 7106,7117.5C 7102.39,7121.8 7098.05,7125.14 7093,7127.5C 7091.1,7132.96 7088.94,7138.29 7086.5,7143.5C 7083.2,7139.05 7079.7,7138.72 7076,7142.5C 7073.07,7148.14 7071.9,7154.14 7072.5,7160.5C 7066.83,7160.5 7061.17,7160.5 7055.5,7160.5C 7055.5,7165.83 7055.5,7171.17 7055.5,7176.5C 7050.1,7175.97 7045.1,7177.13 7040.5,7180C 7037.03,7188.13 7031.03,7193.46 7022.5,7196C 7019.11,7200.22 7017.78,7205.05 7018.5,7210.5C 7012.82,7210.33 7007.16,7210.5 7001.5,7211C 7002.08,7211.89 7002.41,7212.89 7002.5,7214C 7001.67,7218.15 7001,7222.32 7000.5,7226.5C 6988.42,7222.58 6983.42,7226.91 6985.5,7239.5C 6971.54,7235.8 6964.54,7241.13 6964.5,7255.5C 6951.91,7254.29 6946.25,7259.95 6947.5,7272.5C 6934.95,7271.25 6929.29,7276.91 6930.5,7289.5C 6925.17,7289.5 6919.83,7289.5 6914.5,7289.5C 6914.5,7294.83 6914.5,7300.17 6914.5,7305.5C 6900.55,7302.79 6893.55,7308.46 6893.5,7322.5C 6881.3,7321.53 6874.8,7327.2 6874,7339.5C 6863.15,7335.18 6858.65,7338.84 6860.5,7350.5C 6854.87,7351.5 6849.21,7351.83 6843.5,7351.5C 6843.83,7355.88 6843.49,7360.22 6842.5,7364.5C 6829.02,7361.31 6822.36,7366.64 6822.5,7380.5C 6816.83,7380.5 6811.17,7380.5 6805.5,7380.5C 6805.5,7386.17 6805.5,7391.83 6805.5,7397.5C 6800.17,7397.5 6794.83,7397.5 6789.5,7397.5C 6789.5,7403.17 6789.5,7408.83 6789.5,7414.5C 6778.59,7411.95 6770.92,7415.79 6766.5,7426C 6764.61,7426.16 6763.11,7425.33 6762,7423.5C 6755.98,7431.26 6748.15,7436.09 6738.5,7438C 6735.76,7441.87 6734.76,7446.04 6735.5,7450.5C 6729.87,7451.5 6724.21,7451.83 6718.5,7451.5C 6718.95,7457.38 6718.12,7463.05 6716,7468.5C 6713.21,7465.31 6710.05,7464.48 6706.5,7466C 6702.29,7472.25 6698.46,7478.75 6695,7485.5C 6693.67,7484.17 6692.33,7482.83 6691,7481.5C 6681.9,7487.97 6673.06,7494.8 6664.5,7502C 6659.34,7505.44 6653.67,7506.94 6647.5,7506.5C 6647.88,7511.85 6647.21,7517.01 6645.5,7522C 6639.46,7519.08 6634.29,7520.24 6630,7525.5C 6628.69,7527.96 6627.52,7530.46 6626.5,7533C 6608.66,7538.88 6592.82,7548.04 6579,7560.5C 6577.27,7564.67 6576.1,7569 6575.5,7573.5C 6559.41,7581.55 6543.07,7589.05 6526.5,7596C 6523.11,7600.25 6521.78,7605.09 6522.5,7610.5C 6516.83,7610.5 6511.17,7610.5 6505.5,7610.5C 6505.82,7614.55 6505.49,7618.55 6504.5,7622.5C 6485.28,7626.19 6468.44,7634.53 6454,7647.5C 6452.42,7651.71 6451.25,7656.05 6450.5,7660.5C 6440.75,7659.35 6431.75,7661.52 6423.5,7667C 6419.83,7670.67 6416.17,7674.33 6412.5,7678C 6398.11,7685.86 6383.45,7693.19 6368.5,7700C 6364.97,7704.17 6363.64,7709 6364.5,7714.5C 6360.42,7714.34 6356.42,7714.84 6352.5,7716C 6348.3,7717.93 6344.3,7720.1 6340.5,7722.5C 6338.2,7721.6 6335.87,7721.44 6333.5,7722C 6330.12,7724.75 6327.46,7728.08 6325.5,7732C 6320.9,7734.87 6315.9,7736.03 6310.5,7735.5C 6310.5,7739.5 6310.5,7743.5 6310.5,7747.5C 6299.12,7749.34 6287.78,7751.51 6276.5,7754C 6273.44,7758.35 6272.11,7763.18 6272.5,7768.5C 6251.19,7768.49 6234.19,7776.99 6221.5,7794C 6210.22,7800.15 6198.22,7803.98 6185.5,7805.5C 6185.5,7811.17 6185.5,7816.83 6185.5,7822.5C 6174.17,7822.5 6162.83,7822.5 6151.5,7822.5C 6151.5,7828.17 6151.5,7833.83 6151.5,7839.5C 6139.2,7841.13 6126.87,7842.46 6114.5,7843.5C 6114.8,7847.77 6114.46,7851.93 6113.5,7856C 6104.06,7857.49 6094.72,7859.49 6085.5,7862C 6081.81,7866.1 6080.48,7870.77 6081.5,7876C 6068.87,7877.76 6056.2,7879.26 6043.5,7880.5C 6043.5,7884.83 6043.5,7889.17 6043.5,7893.5C 6032.49,7894.75 6021.49,7896.08 6010.5,7897.5C 6010.5,7901.83 6010.5,7906.17 6010.5,7910.5C 5999.26,7910.85 5988.26,7912.68 5977.5,7916C 5973.55,7920 5971.89,7924.84 5972.5,7930.5C 5961.5,7930.5 5950.5,7930.5 5939.5,7930.5C 5940.22,7935.95 5938.89,7940.78 5935.5,7945C 5925.44,7946.6 5915.44,7948.44 5905.5,7950.5C 5902.35,7954.62 5901.02,7959.29 5901.5,7964.5C 5890.5,7964.5 5879.5,7964.5 5868.5,7964.5C 5869.04,7969.2 5868.04,7973.54 5865.5,7977.5C 5845.32,7977.43 5827.99,7984.27 5813.5,7998C 5802.66,8001 5791.66,8003.17 5780.5,8004.5C 5777.62,8008.69 5776.29,8013.35 5776.5,8018.5C 5765.5,8018.5 5754.5,8018.5 5743.5,8018.5C 5744.22,8023.91 5742.89,8028.75 5739.5,8033C 5724.33,8034.7 5709.33,8037.36 5694.5,8041C 5691.26,8044.82 5688.26,8048.82 5685.5,8053C 5668.81,8054.34 5653.81,8060.01 5640.5,8070C 5628.78,8071.59 5617.12,8073.42 5605.5,8075.5C 5602.96,8079.42 5600.29,8083.25 5597.5,8087C 5580.85,8089.33 5564.18,8091.5 5547.5,8093.5C 5547.5,8097.5 5547.5,8101.5 5547.5,8105.5C 5525.31,8102.17 5506.31,8108.34 5490.5,8124C 5476.37,8126.02 5462.37,8128.69 5448.5,8132C 5444.17,8133.67 5441.17,8136.67 5439.5,8141C 5422.87,8143.5 5406.2,8145.66 5389.5,8147.5C 5389.5,8151.83 5389.5,8156.17 5389.5,8160.5C 5373.15,8159.46 5356.82,8159.96 5340.5,8162C 5337.15,8165.69 5334.15,8169.69 5331.5,8174C 5321.59,8175.79 5311.76,8177.96 5302,8180.5C 5298.11,8179.72 5294.45,8178.39 5291,8176.5C 5278.97,8181.76 5267.47,8187.93 5256.5,8195C 5233.91,8194.98 5212.91,8200.64 5193.5,8212C 5176.03,8212.85 5158.7,8214.85 5141.5,8218C 5134.34,8221.41 5127.34,8225.08 5120.5,8229C 5101.45,8230.26 5082.45,8231.93 5063.5,8234C 5058.25,8236.6 5053.58,8239.93 5049.5,8244C 5026.79,8249.29 5003.79,8252.63 4980.5,8254C 4952.17,8266.45 4922.5,8272.11 4891.5,8271C 4880.45,8273.24 4870.12,8277.24 4860.5,8283C 4834.46,8284.22 4808.46,8285.89 4782.5,8288C 4771.5,8291.67 4760.5,8295.33 4749.5,8299C 4715.52,8300.94 4681.52,8302.61 4647.5,8304C 4632.51,8309.22 4617.84,8315.22 4603.5,8322C 4315.84,8327.62 4028.18,8327.96 3740.5,8323C 3732.5,8322.67 3724.5,8322.33 3716.5,8322C 3699.6,8315.96 3682.77,8309.8 3666,8303.5C 3621.02,8305.43 3576.86,8300.26 3533.5,8288C 3495.82,8288.76 3459.15,8283.09 3423.5,8271C 3403.17,8269.29 3382.84,8267.62 3362.5,8266C 3335.11,8253.99 3306.45,8247.65 3276.5,8247C 3266.26,8242.88 3256.26,8238.21 3246.5,8233C 3229.17,8231.67 3211.83,8230.33 3194.5,8229C 3190.28,8227.89 3186.28,8226.22 3182.5,8224C 3178.41,8220.91 3174.08,8218.24 3169.5,8216C 3133.31,8210.36 3097.31,8203.7 3061.5,8196C 3049.11,8189.39 3036.61,8182.89 3024,8176.5C 3013.72,8179.4 3003.55,8178.9 2993.5,8175C 2986.62,8171.45 2980.28,8167.11 2974.5,8162C 2959.83,8160.67 2945.17,8159.33 2930.5,8158C 2927.43,8148.89 2921.26,8145.39 2912,8147.5C 2899.94,8144.57 2887.77,8142.24 2875.5,8140.5C 2873.64,8136.47 2870.64,8133.64 2866.5,8132C 2844.75,8131.81 2825.75,8124.64 2809.5,8110.5C 2807.23,8111.44 2805.23,8112.77 2803.5,8114.5C 2788.23,8108.2 2773.23,8101.36 2758.5,8094C 2743.73,8090.28 2728.73,8088.78 2713.5,8089.5C 2713.5,8083.83 2713.5,8078.17 2713.5,8072.5C 2703.13,8072.77 2692.79,8072.27 2682.5,8071C 2666.73,8061.74 2649.73,8056.08 2631.5,8054C 2619.89,8043.86 2606.56,8036.86 2591.5,8033C 2584.85,8031.97 2578.18,8031.14 2571.5,8030.5C 2571.5,8026.5 2571.5,8022.5 2571.5,8018.5C 2560.38,8019 2549.38,8018.16 2538.5,8016C 2535.52,8011.36 2532.19,8007.02 2528.5,8003C 2503.53,7992.79 2477.86,7984.79 2451.5,7979C 2447.94,7974.83 2446.28,7970 2446.5,7964.5C 2435.5,7964.5 2424.5,7964.5 2413.5,7964.5C 2414.77,7952.52 2409.44,7947.02 2397.5,7948C 2390.17,7947.5 2382.84,7947.33 2375.5,7947.5C 2375.5,7941.83 2375.5,7936.17 2375.5,7930.5C 2364.5,7930.5 2353.5,7930.5 2342.5,7930.5C 2343.26,7925.2 2341.93,7920.54 2338.5,7916.5C 2327.78,7912.96 2316.78,7910.96 2305.5,7910.5C 2305.5,7906.17 2305.5,7901.83 2305.5,7897.5C 2294.17,7896.17 2282.83,7894.83 2271.5,7893.5C 2270.64,7878.97 2263.14,7873.97 2249,7878.5C 2244.47,7878.28 2239.97,7877.78 2235.5,7877C 2235.26,7871.28 2233.26,7866.28 2229.5,7862C 2219.84,7860.2 2210.17,7859.53 2200.5,7860C 2201.76,7854.53 2200.42,7849.69 2196.5,7845.5C 2185.78,7841.96 2174.78,7839.96 2163.5,7839.5C 2163.5,7833.83 2163.5,7828.17 2163.5,7822.5C 2154.68,7823.03 2146.01,7822.2 2137.5,7820C 2132.4,7816.98 2130.07,7812.48 2130.5,7806.5C 2118.41,7807.2 2108.58,7802.87 2101,7793.5C 2099.03,7794.64 2097.19,7795.97 2095.5,7797.5C 2093.05,7792.55 2089.22,7789.21 2084,7787.5C 2082.22,7788.24 2080.38,7788.91 2078.5,7789.5C 2069.68,7774.09 2056.35,7767.09 2038.5,7768.5C 2038.5,7762.83 2038.5,7757.17 2038.5,7751.5C 2027.73,7751.32 2017.06,7750.15 2006.5,7748C 2005.7,7743.92 2005.2,7739.75 2005,7735.5C 1988.38,7726.45 1970.88,7719.45 1952.5,7714.5C 1951.34,7710.19 1950.34,7705.86 1949.5,7701.5C 1940.39,7699.86 1932.22,7696.19 1925,7690.5C 1923.37,7691.29 1921.87,7692.29 1920.5,7693.5C 1917.96,7689.57 1916.96,7685.24 1917.5,7680.5C 1910.5,7680.5 1903.5,7680.5 1896.5,7680.5C 1896.5,7675.17 1896.5,7669.83 1896.5,7664.5C 1887.21,7665.13 1879.04,7662.46 1872,7656.5C 1864.33,7658.85 1860.66,7655.85 1861,7647.5C 1846.29,7635.06 1829.46,7626.73 1810.5,7622.5C 1809.51,7618.55 1809.18,7614.55 1809.5,7610.5C 1803.83,7610.5 1798.17,7610.5 1792.5,7610.5C 1792.77,7606.4 1792.27,7602.4 1791,7598.5C 1780.86,7595.19 1772.36,7589.52 1765.5,7581.5C 1757.1,7584.78 1753.76,7581.78 1755.5,7572.5C 1749.83,7572.5 1744.17,7572.5 1738.5,7572.5C 1739.6,7564.27 1736.6,7558.1 1729.5,7554C 1716.1,7543.97 1701.1,7537.8 1684.5,7535.5C 1684.66,7532.48 1684.5,7529.48 1684,7526.5C 1681.36,7520.25 1677.03,7518.92 1671,7522.5C 1670.5,7522.17 1670,7521.83 1669.5,7521.5C 1667.98,7516.29 1667.15,7510.96 1667,7505.5C 1651.26,7492.97 1633.43,7484.97 1613.5,7481.5C 1614.25,7470.24 1609.25,7465.9 1598.5,7468.5C 1596.98,7462.95 1596.31,7457.28 1596.5,7451.5C 1591.17,7451.5 1585.83,7451.5 1580.5,7451.5C 1580.91,7446.5 1579.25,7442.33 1575.5,7439C 1565.61,7432.89 1554.94,7428.72 1543.5,7426.5C 1542.68,7423.22 1542.18,7419.88 1542,7416.5C 1541.53,7415.07 1540.7,7413.9 1539.5,7413C 1535.8,7412.2 1532.3,7412.7 1529,7414.5C 1527.07,7408.72 1524.74,7403.05 1522,7397.5C 1518.67,7393.5 1515.33,7393.5 1512,7397.5C 1511.67,7397.17 1511.33,7396.83 1511,7396.5C 1509.75,7391.58 1509.25,7386.58 1509.5,7381.5C 1495.55,7384.21 1488.55,7378.54 1488.5,7364.5C 1482.83,7364.5 1477.17,7364.5 1471.5,7364.5C 1473.72,7352.55 1469.06,7348.05 1457.5,7351C 1454.58,7341.59 1448.25,7337.75 1438.5,7339.5C 1438.65,7326.64 1432.31,7319.31 1419.5,7317.5C 1417.85,7313.67 1417.19,7309.67 1417.5,7305.5C 1412.17,7305.5 1406.83,7305.5 1401.5,7305.5C 1401.5,7300.17 1401.5,7294.83 1401.5,7289.5C 1395.83,7289.5 1390.17,7289.5 1384.5,7289.5C 1385.83,7276.83 1380.17,7271.17 1367.5,7272.5C 1368.72,7264.94 1366.05,7259.44 1359.5,7256C 1355.13,7255.83 1350.8,7255.33 1346.5,7254.5C 1348.52,7243.18 1344.19,7239.52 1333.5,7243.5C 1331.5,7237.67 1329,7232 1326,7226.5C 1322.88,7222.57 1319.71,7222.57 1316.5,7226.5C 1314.56,7220.36 1312.23,7214.36 1309.5,7208.5C 1305.55,7205.65 1302.21,7206.32 1299.5,7210.5C 1297.9,7201.96 1293.73,7194.96 1287,7189.5C 1285.67,7190.83 1284.33,7192.17 1283,7193.5C 1278.67,7186.83 1274.33,7180.17 1270,7173.5C 1268.26,7175.62 1266.1,7176.46 1263.5,7176C 1260.42,7169.84 1257.09,7163.84 1253.5,7158C 1249.88,7155.76 1247.05,7156.59 1245,7160.5C 1243.22,7154.28 1240.89,7148.28 1238,7142.5C 1234.6,7138.35 1231.6,7138.68 1229,7143.5C 1227.11,7135.39 1222.95,7128.73 1216.5,7123.5C 1215.35,7124.14 1214.35,7124.98 1213.5,7126C 1212.36,7126.75 1211.36,7126.58 1210.5,7125.5C 1206.71,7119.42 1203.04,7113.25 1199.5,7107C 1195.97,7106.34 1193.14,7107.51 1191,7110.5C 1188.84,7103.67 1188.01,7096.67 1188.5,7089.5C 1182.83,7089.5 1177.17,7089.5 1171.5,7089.5C 1172.44,7084.1 1171.94,7078.76 1170,7073.5C 1165.58,7071.38 1161.42,7068.88 1157.5,7066C 1154.73,7061.77 1151.73,7057.77 1148.5,7054C 1144.08,7051.9 1139.41,7051.06 1134.5,7051.5C 1134.85,7045.65 1134.02,7039.99 1132,7034.5C 1127.69,7030.33 1123.69,7030.66 1120,7035.5C 1121.35,7021.69 1115.18,7014.69 1101.5,7014.5C 1104.21,7000.55 1098.54,6993.55 1084.5,6993.5C 1085.83,6978.17 1078.83,6971.17 1063.5,6972.5C 1063.95,6966.62 1063.12,6960.95 1061,6955.5C 1057.97,6951.76 1054.81,6951.76 1051.5,6955.5C 1050.27,6942.6 1043.27,6935.94 1030.5,6935.5C 1032.15,6929.47 1031.32,6923.81 1028,6918.5C 1023.78,6915.11 1018.95,6913.78 1013.5,6914.5C 1014,6899.68 1007,6894.01 992.5,6897.5C 992.5,6890.5 992.5,6883.5 992.5,6876.5C 987.167,6876.5 981.833,6876.5 976.5,6876.5C 976.773,6868.91 975.607,6861.58 973,6854.5C 969.299,6850.72 965.799,6851.05 962.5,6855.5C 962.167,6855.17 961.833,6854.83 961.5,6854.5C 960.086,6847.76 958.419,6841.1 956.5,6834.5C 952.201,6831.92 947.535,6830.25 942.5,6829.5C 944.986,6813.65 938.319,6807.32 922.5,6810.5C 922.537,6804.41 921.371,6798.41 919,6792.5C 915.117,6788.54 911.451,6788.87 908,6793.5C 906.082,6786.58 904.415,6779.58 903,6772.5C 898.785,6769.11 893.951,6767.78 888.5,6768.5C 892.554,6753.54 886.887,6744.88 871.5,6742.5C 873.931,6726.93 867.265,6720.26 851.5,6722.5C 851.716,6715.38 850.883,6708.38 849,6701.5C 845.118,6696.25 841.285,6696.25 837.5,6701.5C 837.167,6701.17 836.833,6700.83 836.5,6700.5C 834.894,6692.53 833.394,6684.53 832,6676.5C 830.587,6674.59 828.753,6673.25 826.5,6672.5C 824.228,6673.44 822.228,6674.77 820.5,6676.5C 818.603,6669.52 816.77,6662.52 815,6655.5C 810.952,6652.65 806.452,6651.32 801.5,6651.5C 802.546,6641.6 799.213,6633.6 791.5,6627.5C 789.255,6629.62 786.588,6630.62 783.5,6630.5C 780.882,6622.36 779.049,6614.03 778,6605.5C 776.587,6603.59 774.753,6602.25 772.5,6601.5C 770.228,6602.44 768.228,6603.77 766.5,6605.5C 764.243,6597.3 762.41,6588.97 761,6580.5C 759.587,6578.59 757.753,6577.25 755.5,6576.5C 753.228,6577.44 751.228,6578.77 749.5,6580.5C 748.853,6569.54 744.686,6560.21 737,6552.5C 735.981,6553.69 734.814,6554.69 733.5,6555.5C 732.668,6544.33 728.001,6535.17 719.5,6528C 716.82,6527.67 714.487,6528.5 712.5,6530.5C 712.167,6530.17 711.833,6529.83 711.5,6529.5C 709.894,6521.53 708.394,6513.53 707,6505.5C 705.587,6503.59 703.753,6502.25 701.5,6501.5C 699.228,6502.44 697.228,6503.77 695.5,6505.5C 694.12,6496.31 691.954,6487.31 689,6478.5C 686.513,6472.87 683.18,6472.21 679,6476.5C 676.978,6468.09 674.478,6459.76 671.5,6451.5C 668.238,6448.08 664.238,6446.74 659.5,6447.5C 662.237,6430.91 655.237,6422.57 638.5,6422.5C 638.666,6416.82 638.499,6411.16 638,6405.5C 638.207,6399.9 635.874,6395.9 631,6393.5C 628.447,6394.22 626.28,6395.56 624.5,6397.5C 622.675,6388.23 621.175,6378.89 620,6369.5C 616.614,6363.16 612.614,6362.83 608,6368.5C 607.1,6356.8 603.6,6345.97 597.5,6336C 595.117,6336.45 592.95,6337.61 591,6339.5C 589.412,6329.07 586.412,6319.07 582,6309.5C 577.781,6305.47 573.781,6305.8 570,6310.5C 568.611,6300.44 566.944,6290.44 565,6280.5C 561.517,6275.55 557.85,6275.55 554,6280.5C 551.785,6271.02 550.119,6261.35 549,6251.5C 545.118,6246.25 541.285,6246.25 537.5,6251.5C 537.102,6237.96 532.768,6225.96 524.5,6215.5C 523.167,6216.5 521.833,6217.5 520.5,6218.5C 518.637,6208.72 516.304,6199.05 513.5,6189.5C 508.415,6185.48 502.748,6184.14 496.5,6185.5C 497.465,6175.8 496.965,6166.13 495,6156.5C 493.635,6154.14 491.635,6152.47 489,6151.5C 486.708,6152.79 484.708,6154.46 483,6156.5C 481.008,6145.23 479.341,6133.9 478,6122.5C 474.211,6117.23 470.378,6117.23 466.5,6122.5C 464.38,6111.83 462.213,6101.16 460,6090.5C 456.4,6086.45 451.9,6084.78 446.5,6085.5C 447.881,6074 446.047,6063 441,6052.5C 437.46,6046.32 433.46,6045.98 429,6051.5C 426.77,6040.68 425.103,6029.68 424,6018.5C 420.088,6013.3 416.088,6013.3 412,6018.5C 410.329,6007.13 408.496,5995.8 406.5,5984.5C 402.348,5981.5 397.848,5980.5 393,5981.5C 395.081,5967.57 392.415,5954.57 385,5942.5C 382.724,5939.94 380.724,5940.27 379,5943.5C 377.276,5930.89 374.276,5918.55 370,5906.5C 368.635,5904.14 366.635,5902.47 364,5901.5C 361.708,5902.79 359.708,5904.46 358,5906.5C 355.97,5893.9 354.303,5881.23 353,5868.5C 349.162,5863.25 345.329,5863.25 341.5,5868.5C 339.413,5855.88 337.579,5843.22 336,5830.5C 333.167,5824.66 329.001,5823.32 323.5,5826.5C 322.767,5813.4 321.267,5800.4 319,5787.5C 315.737,5782.69 311.403,5780.69 306,5781.5C 306.952,5767.26 303.952,5753.92 297,5741.5C 293.359,5739.26 290.026,5739.93 287,5743.5C 285.202,5729.52 283.535,5715.52 282,5701.5C 280.587,5699.59 278.753,5698.25 276.5,5697.5C 274.228,5698.44 272.228,5699.77 270.5,5701.5C 268.636,5686.17 266.803,5670.83 265,5655.5C 260.952,5652.65 256.452,5651.32 251.5,5651.5C 251.755,5637.77 250.921,5624.1 249,5610.5C 246.108,5604.45 241.274,5601.45 234.5,5601.5C 234.032,5586.09 232.699,5570.75 230.5,5555.5C 225.129,5555.71 220.295,5557.38 216,5560.5C 214.435,5542.15 212.768,5523.82 211,5505.5C 206.969,5500.64 203.136,5500.98 199.5,5506.5C 197.722,5488.82 195.888,5471.16 194,5453.5C 191.47,5447.71 187.97,5447.05 183.5,5451.5C 180.733,5432.26 178.399,5412.93 176.5,5393.5C 172.167,5393.5 167.833,5393.5 163.5,5393.5C 163.747,5374.05 162.414,5354.71 159.5,5335.5C 154.205,5334.74 149.538,5336.07 145.5,5339.5C 143.619,5319.5 141.786,5299.5 140,5279.5C 138.021,5272.89 134.521,5271.89 129.5,5276.5C 128.808,5275.97 128.308,5275.31 128,5274.5C 126.667,5253.17 125.333,5231.83 124,5210.5C 120.098,5205.2 116.098,5205.2 112,5210.5C 110.201,5189.18 108.534,5167.85 107,5146.5C 106.002,5138.82 102.169,5136.49 95.5,5139.5C 94.221,5112.59 91.0543,5085.93 86,5059.5C 80.2622,5055.6 76.4289,5057.27 74.5,5064.5C 72.6677,5037.86 71.1677,5011.19 70,4984.5C 69.382,4979.93 67.2154,4976.27 63.5,4973.5C 60.4337,4975.29 58.6004,4977.96 58,4981.5C 55.9865,4949.19 54.3199,4916.86 53,4884.5C 50.5691,4876.6 46.5691,4875.6 41,4881.5C 40.2545,4843.32 37.2545,4805.32 32,4767.5C 29.0976,4763.51 26.5976,4763.84 24.5,4768.5C 23.3263,4726.39 20.493,4684.39 16,4642.5C 11.098,4628.94 7.098,4629.27 4,4643.5C 3.66667,4637.17 3.33333,4630.83 3,4624.5C 1,4317.5 1,4010.5 3,3703.5C 3.33333,3697.17 3.66667,3690.83 4,3684.5C 8.16064,3697.77 12.1606,3697.77 16,3684.5C 20.0468,3643.22 23.3802,3601.89 26,3560.5C 31.0668,3556.71 34.4002,3551.71 36,3545.5C 37.5286,3511.14 39.362,3476.81 41.5,3442.5C 47.3777,3447.35 51.211,3446.02 53,3438.5C 54.3646,3407.81 56.0313,3377.14 58,3346.5C 60.4613,3356.05 64.128,3356.71 69,3348.5C 71.3305,3320.22 72.8305,3291.89 73.5,3263.5C 76.3443,3264.06 79.1776,3264.72 82,3265.5C 85.401,3265.3 87.7343,3263.64 89,3260.5C 91.365,3236.53 93.5317,3212.53 95.5,3188.5C 101.89,3190.64 105.723,3188.31 107,3181.5C 108.534,3160.15 110.201,3138.82 112,3117.5C 118.072,3122.42 122.072,3121.08 124,3113.5C 125.138,3092.43 126.804,3071.43 129,3050.5C 132.418,3056.09 136.084,3056.42 140,3051.5C 141.767,3030.49 143.6,3009.49 145.5,2988.5C 150.617,2994.18 154.784,2993.52 158,2986.5C 162.793,2969.49 164.626,2952.15 163.5,2934.5C 170.026,2934.82 174.86,2932.15 178,2926.5C 179.865,2909.56 180.865,2892.56 181,2875.5C 185.66,2876.42 189.993,2875.42 194,2872.5C 195.997,2855.54 197.831,2838.54 199.5,2821.5C 203.022,2826.24 206.855,2826.58 211,2822.5C 212.768,2804.18 214.435,2785.85 216,2767.5C 217.345,2772.53 220.511,2774.7 225.5,2774C 226.333,2773.17 227.167,2772.33 228,2771.5C 232.672,2755.14 235.672,2738.47 237,2721.5C 242.158,2724.73 245.824,2723.4 248,2717.5C 250.534,2703.63 251.867,2689.63 252,2675.5C 256.66,2676.42 260.993,2675.42 265,2672.5C 266.767,2658.49 268.601,2644.49 270.5,2630.5C 272.228,2632.23 274.228,2633.56 276.5,2634.5C 278.753,2633.75 280.587,2632.41 282,2630.5C 283.326,2615.07 285.159,2599.74 287.5,2584.5C 292.658,2587.69 297.158,2587.03 301,2582.5C 303.822,2569.26 306.155,2555.93 308,2542.5C 314.522,2546.03 318.522,2544.03 320,2536.5C 321.172,2524.45 322.672,2512.45 324.5,2500.5C 329.41,2506.13 333.243,2505.46 336,2498.5C 337.507,2485.44 339.34,2472.44 341.5,2459.5C 345.378,2464.77 349.211,2464.77 353,2459.5C 353.827,2446.53 356.161,2433.87 360,2421.5C 363.501,2426.62 366.835,2426.62 370,2421.5C 374.131,2409.32 377.298,2396.99 379.5,2384.5C 384.025,2387.49 387.525,2386.49 390,2381.5C 391.911,2369.88 393.578,2358.21 395,2346.5C 398.781,2351.2 402.781,2351.53 407,2347.5C 408.464,2335.49 409.964,2323.49 411.5,2311.5C 411.833,2310.83 412.167,2310.17 412.5,2309.5C 416.237,2314.77 420.07,2314.77 424,2309.5C 425.159,2296.73 426.826,2284.06 429,2271.5C 433.321,2275.59 437.988,2276.59 443,2274.5C 445.433,2263.97 446.6,2253.3 446.5,2242.5C 451.447,2243.37 455.613,2242.04 459,2238.5C 462.935,2229.24 464.435,2219.57 463.5,2209.5C 468.818,2209.89 473.652,2208.56 478,2205.5C 479.341,2194.1 481.008,2182.77 483,2171.5C 486.355,2176.31 490.021,2176.64 494,2172.5C 495.994,2161.22 497.827,2149.89 499.5,2138.5C 504.217,2143.64 508.883,2143.64 513.5,2138.5C 516.215,2128.93 518.548,2119.26 520.5,2109.5C 525.864,2112.86 529.697,2111.53 532,2105.5C 534.117,2097.31 534.95,2088.98 534.5,2080.5C 540.107,2080.89 544.941,2079.23 549,2075.5C 550.119,2065.65 551.785,2055.98 554,2046.5C 557.355,2051.31 561.021,2051.64 565,2047.5C 566.298,2037.17 568.798,2027.17 572.5,2017.5C 575.575,2021.7 578.742,2022.03 582,2018.5C 586.896,2010.52 589.063,2001.86 588.5,1992.5C 593.447,1993.37 597.613,1992.04 601,1988.5C 603.812,1978.92 606.145,1969.25 608,1959.5C 611.377,1964.2 615.043,1964.53 619,1960.5C 620.787,1950.49 622.62,1940.49 624.5,1930.5C 628.477,1935.57 632.31,1935.57 636,1930.5C 637.848,1922.28 639.014,1913.95 639.5,1905.5C 657.103,1902.99 663.77,1892.99 659.5,1875.5C 674.372,1874.27 680.039,1866.27 676.5,1851.5C 681.404,1851.48 685.904,1850.15 690,1847.5C 691.881,1838.88 693.547,1830.22 695,1821.5C 698.694,1826.34 702.694,1826.67 707,1822.5C 708.453,1813.78 710.119,1805.12 712,1796.5C 718.835,1801.42 724.168,1800.09 728,1792.5C 729.415,1785.42 731.082,1778.42 733,1771.5C 737.146,1775.32 740.813,1774.66 744,1769.5C 746.669,1762 747.502,1754.33 746.5,1746.5C 752.167,1746.5 757.833,1746.5 763.5,1746.5C 763.05,1738.02 763.883,1729.69 766,1721.5C 769.615,1726.42 773.615,1726.76 778,1722.5C 779.333,1714.5 780.667,1706.5 782,1698.5C 782.308,1697.69 782.808,1697.03 783.5,1696.5C 792.723,1698.97 798.557,1695.64 801,1686.5C 801.499,1682.85 801.665,1679.18 801.5,1675.5C 812.367,1675.63 818.033,1670.3 818.5,1659.5C 818.331,1656.47 817.998,1653.47 817.5,1650.5C 832.949,1649.64 838.615,1641.64 834.5,1626.5C 840.167,1626.5 845.833,1626.5 851.5,1626.5C 851.5,1619.5 851.5,1612.5 851.5,1605.5C 867.287,1607.71 873.954,1601.05 871.5,1585.5C 886.71,1583.08 892.376,1574.42 888.5,1559.5C 893.818,1559.89 898.652,1558.56 903,1555.5C 904.169,1548.31 905.835,1541.31 908,1534.5C 911.377,1539.2 915.043,1539.53 919,1535.5C 920.895,1528.19 922.729,1520.86 924.5,1513.5C 926.228,1515.23 928.228,1516.56 930.5,1517.5C 933.77,1515.73 936.603,1513.4 939,1510.5C 942.06,1504.82 944.226,1498.82 945.5,1492.5C 948.943,1497.32 952.777,1497.65 957,1493.5C 958.54,1486.13 960.207,1478.8 962,1471.5C 966.098,1476.8 970.098,1476.8 974,1471.5C 975.813,1464.95 976.647,1458.29 976.5,1451.5C 981.833,1451.5 987.167,1451.5 992.5,1451.5C 992.5,1444.5 992.5,1437.5 992.5,1430.5C 1008.55,1432.78 1016.55,1425.78 1016.5,1409.5C 1020.38,1414.77 1024.21,1414.77 1028,1409.5C 1029.17,1402.31 1030.84,1395.31 1033,1388.5C 1037.52,1394.06 1041.52,1393.73 1045,1387.5C 1046.94,1382.24 1047.44,1376.9 1046.5,1371.5C 1052.17,1371.5 1057.83,1371.5 1063.5,1371.5C 1063.5,1366.17 1063.5,1360.83 1063.5,1355.5C 1077.53,1355.47 1084.53,1348.47 1084.5,1334.5C 1098.55,1334.44 1104.22,1327.44 1101.5,1313.5C 1115.09,1313.24 1121.42,1306.24 1120.5,1292.5C 1123.94,1297.32 1127.78,1297.65 1132,1293.5C 1133.85,1287.99 1134.85,1282.33 1135,1276.5C 1147.67,1275 1155.5,1268 1158.5,1255.5C 1161.09,1257.76 1163.75,1257.93 1166.5,1256C 1170.88,1251.22 1172.55,1245.72 1171.5,1239.5C 1178.86,1239.23 1184.69,1236.23 1189,1230.5C 1189.96,1226.2 1190.8,1221.87 1191.5,1217.5C 1202.01,1221.03 1207.35,1217.03 1207.5,1205.5C 1219.44,1203.56 1226.44,1196.56 1228.5,1184.5C 1231.71,1187.1 1234.87,1187.1 1238,1184.5C 1241.84,1179.48 1243.34,1173.82 1242.5,1167.5C 1254.65,1169.01 1260.32,1163.68 1259.5,1151.5C 1264.83,1151.5 1270.17,1151.5 1275.5,1151.5C 1275.69,1147.09 1276.35,1142.75 1277.5,1138.5C 1285.06,1138.8 1290.89,1135.8 1295,1129.5C 1296.6,1125.53 1298.1,1121.53 1299.5,1117.5C 1304.46,1120.81 1308.29,1119.81 1311,1114.5C 1312.31,1110.24 1313.81,1106.07 1315.5,1102C 1317.59,1102.69 1319.76,1103.52 1322,1104.5C 1323.23,1104.36 1324.39,1104.02 1325.5,1103.5C 1328.72,1097.67 1331.05,1091.51 1332.5,1085C 1334.96,1085.25 1337.46,1085.75 1340,1086.5C 1341.9,1086.39 1343.56,1085.72 1345,1084.5C 1346.99,1080.24 1347.82,1075.9 1347.5,1071.5C 1360.96,1074.71 1367.62,1069.38 1367.5,1055.5C 1380.19,1056.81 1385.85,1051.15 1384.5,1038.5C 1390.17,1038.5 1395.83,1038.5 1401.5,1038.5C 1401.5,1032.83 1401.5,1027.17 1401.5,1021.5C 1406.83,1021.5 1412.17,1021.5 1417.5,1021.5C 1417.06,1009.77 1422.73,1003.6 1434.5,1003C 1437.13,998.279 1439.46,993.445 1441.5,988.5C 1442.81,989.313 1443.98,990.313 1445,991.5C 1450.56,983.141 1458.06,977.308 1467.5,974C 1470.24,969.356 1472.57,964.523 1474.5,959.5C 1478.68,962.593 1483.35,963.927 1488.5,963.5C 1487.53,951.297 1493.2,944.797 1505.5,944C 1508.09,939.657 1510.26,935.157 1512,930.5C 1514.33,933.791 1517.17,934.291 1520.5,932C 1524.3,926.262 1527.13,920.095 1529,913.5C 1531.27,916.91 1534.1,917.744 1537.5,916C 1540.25,911.163 1543.25,906.497 1546.5,902C 1549.51,901.752 1552.18,902.418 1554.5,904C 1563.31,895.434 1572.31,887.101 1581.5,879C 1586.16,876.418 1591.16,875.251 1596.5,875.5C 1596.5,870.167 1596.5,864.833 1596.5,859.5C 1602.17,859.5 1607.83,859.5 1613.5,859.5C 1613.5,855.167 1613.5,850.833 1613.5,846.5C 1633.13,843.016 1650.8,835.183 1666.5,823C 1667.11,817.46 1668.11,811.96 1669.5,806.5C 1672.3,805.89 1675.13,806.224 1678,807.5C 1681.35,806.82 1683.35,804.82 1684,801.5C 1684.5,798.518 1684.66,795.518 1684.5,792.5C 1701.5,788.668 1717.17,781.835 1731.5,772C 1736.98,767.876 1739.31,762.376 1738.5,755.5C 1744.17,755.5 1749.83,755.5 1755.5,755.5C 1755.5,751.167 1755.5,746.833 1755.5,742.5C 1767.11,742.432 1777.78,739.265 1787.5,733C 1791.92,728.779 1793.59,723.613 1792.5,717.5C 1798.17,717.5 1803.83,717.5 1809.5,717.5C 1809.2,713.233 1809.54,709.066 1810.5,705C 1836.42,696.88 1859.42,683.88 1879.5,666C 1884.96,663.881 1890.63,663.048 1896.5,663.5C 1896.5,657.833 1896.5,652.167 1896.5,646.5C 1913.83,643.506 1930.16,637.673 1945.5,629C 1949.4,624.587 1951.74,619.42 1952.5,613.5C 1970.5,608.335 1987.83,601.502 2004.5,593C 2005.17,588.667 2005.83,584.333 2006.5,580C 2017.02,577.518 2027.69,576.351 2038.5,576.5C 2038.5,570.833 2038.5,565.167 2038.5,559.5C 2049,558.634 2059.33,556.801 2069.5,554C 2075.47,549.033 2081.14,543.699 2086.5,538C 2099.31,528.672 2113.64,523.172 2129.5,521.5C 2130.17,517.5 2130.83,513.5 2131.5,509.5C 2140.93,507.781 2150.26,505.614 2159.5,503C 2162.89,498.747 2164.22,493.914 2163.5,488.5C 2174.58,487.851 2185.41,485.851 2196,482.5C 2201.9,474.269 2209.73,468.769 2219.5,466C 2223.17,465.667 2226.83,465.333 2230.5,465C 2233.89,460.785 2235.22,455.951 2234.5,450.5C 2257.96,445.717 2280.96,439.217 2303.5,431C 2305.4,426.822 2306.07,422.322 2305.5,417.5C 2316.85,417.053 2327.85,414.887 2338.5,411C 2342.03,406.834 2343.36,402.001 2342.5,396.5C 2351.88,397.531 2361.21,397.031 2370.5,395C 2374.18,392.153 2376.18,388.32 2376.5,383.5C 2376.39,382.558 2376.06,381.725 2375.5,381C 2386.92,380.863 2398.25,379.863 2409.5,378C 2412.89,373.747 2414.22,368.914 2413.5,363.5C 2424.5,363.5 2435.5,363.5 2446.5,363.5C 2446.2,359.233 2446.54,355.066 2447.5,351C 2458.21,349.216 2468.87,347.216 2479.5,345C 2491.78,329.531 2507.78,322.865 2527.5,325C 2532.1,321.489 2535.76,317.156 2538.5,312C 2549.37,309.795 2560.37,308.961 2571.5,309.5C 2571.5,305.167 2571.5,300.833 2571.5,296.5C 2586.92,295.395 2601.92,292.229 2616.5,287C 2623.51,284.443 2626.51,279.61 2625.5,272.5C 2653.56,266.318 2681.56,259.818 2709.5,253C 2712.89,248.747 2714.22,243.914 2713.5,238.5C 2740,239.701 2765,234.201 2788.5,222C 2799.83,216.333 2811.17,210.667 2822.5,205C 2837.09,201.615 2851.76,198.615 2866.5,196C 2870.98,193.68 2874.65,190.513 2877.5,186.5C 2893.46,184.171 2909.46,182.171 2925.5,180.5C 2925.5,176.167 2925.5,171.833 2925.5,167.5C 2941.39,168.117 2957.39,167.617 2973.5,166C 2980.55,161.3 2987.89,156.967 2995.5,153C 3007.16,149.156 3019.16,147.489 3031.5,148C 3051.97,131.956 3075.13,125.456 3101,128.5C 3113.34,116.256 3128.17,111.756 3145.5,115C 3162.35,113.05 3178.02,107.716 3192.5,99C 3210.21,97.7185 3227.88,96.0519 3245.5,94C 3281.26,82.5237 3317.26,71.857 3353.5,62C 3376.83,60.2504 3400.16,58.5838 3423.5,57C 3434.55,54.7621 3444.89,50.7621 3454.5,45C 3480.2,43.6651 3505.86,41.9985 3531.5,40C 3541.5,36.3333 3551.5,32.6667 3561.5,29C 3604.99,28.7134 3647.99,24.0467 3690.5,15C 3697.56,12.1363 3703.56,7.80301 3708.5,2C 3715.01,1.82793 3721.35,1.32793 3727.5,0.5 Z M 2097.5,3551.5 C 2801.83,3551.33 3506.17,3551.5 4210.5,3552C 4624.83,3552.66 5039.17,3553.66 5453.5,3555C 5729.17,3555.66 6004.84,3556.99 6280.5,3559C 6554.6,3610.43 6726.1,3771.26 6795,4041.5C 6833.1,4266.85 6770.6,4458.68 6607.5,4617C 6514.12,4700.07 6405.12,4750.74 6280.5,4769C 6008.17,4771.47 5735.84,4773.14 5463.5,4774C 5115.67,4774.94 4767.83,4775.78 4420,4776.5C 4002.5,4776.27 3585,4775.77 3167.5,4775C 2794.49,4774.17 2421.49,4772.17 2048.5,4769C 1775.88,4718.71 1604.38,4559.55 1534,4291.5C 1491.63,4037.85 1570.13,3831.01 1769.5,3671C 1867.89,3601.66 1977.22,3561.83 2097.5,3551.5 Z"/></g>
</svg>
