<?xml version="1.0" encoding="UTF-8"?>
<!DOCTYPE svg PUBLIC "-//W3C//DTD SVG 1.1//EN" "http://www.w3.org/Graphics/SVG/1.1/DTD/svg11.dtd">
<svg xmlns="http://www.w3.org/2000/svg" version="1.1" width="512px" height="512px" style="shape-rendering:geometricPrecision; text-rendering:geometricPrecision; image-rendering:optimizeQuality; fill-rule:evenodd; clip-rule:evenodd" xmlns:xlink="http://www.w3.org/1999/xlink">
<g><path style="opacity:0.986" fill="#000000" d="M 347.5,-0.5 C 351.167,-0.5 354.833,-0.5 358.5,-0.5C 408.077,47.5763 457.244,96.243 506,145.5C 509.701,150.779 510.368,156.445 508,162.5C 491.596,179.685 472.263,183.685 450,174.5C 407.69,223.48 365.357,272.48 323,321.5C 327.682,328.937 331.682,336.937 335,345.5C 341.653,371.067 335.486,392.9 316.5,411C 311.188,414.208 305.854,414.208 300.5,411C 273.32,383.653 245.986,356.486 218.5,329.5C 182.986,364.848 147.319,400.014 111.5,435C 81.8545,461.493 51.5212,486.993 20.5,511.5C 16.8333,511.5 13.1667,511.5 9.5,511.5C -0.583892,503.196 -1.08389,494.196 8,484.5C 29.2491,457.913 51.2491,431.913 74,406.5C 110.472,369.028 147.305,331.861 184.5,295C 155.667,266.167 126.833,237.333 98,208.5C 94.6667,202.833 94.6667,197.167 98,191.5C 115.346,173.951 136.179,167.784 160.5,173C 170.093,175.545 178.593,180.045 186,186.5C 235.52,144.403 284.853,102.07 334,59.5C 327.18,42.7772 328.18,26.4439 337,10.5C 340.03,6.30533 343.53,2.63866 347.5,-0.5 Z"/></g>
</svg>
