<?xml version="1.0" encoding="UTF-8"?>
<!DOCTYPE svg PUBLIC "-//W3C//DTD SVG 1.1//EN" "http://www.w3.org/Graphics/SVG/1.1/DTD/svg11.dtd">
<svg xmlns="http://www.w3.org/2000/svg" version="1.1" width="512px" height="512px" style="shape-rendering:geometricPrecision; text-rendering:geometricPrecision; image-rendering:optimizeQuality; fill-rule:evenodd; clip-rule:evenodd" xmlns:xlink="http://www.w3.org/1999/xlink">
<g><path style="opacity:0.994" fill="#000000" d="M 98.5,-0.5 C 203.833,-0.5 309.167,-0.5 414.5,-0.5C 434.697,5.20485 446.197,18.5382 449,39.5C 449.667,188.5 449.667,337.5 449,486.5C 448.457,498.288 442.957,506.622 432.5,511.5C 427.833,511.5 423.167,511.5 418.5,511.5C 413.935,509.546 409.602,507.046 405.5,504C 361.206,466.708 317.206,429.041 273.5,391C 262.167,382.333 250.833,382.333 239.5,391C 195.647,428.096 151.981,465.43 108.5,503C 103.73,506.381 98.73,509.214 93.5,511.5C 88.8333,511.5 84.1667,511.5 79.5,511.5C 68.9351,506.726 63.1018,498.393 62,486.5C 61.3333,337.5 61.3333,188.5 62,39.5C 65.6638,18.3389 77.8305,5.00556 98.5,-0.5 Z"/></g>
</svg>
