<?xml version="1.0" standalone="no"?>
<!DOCTYPE svg PUBLIC "-//W3C//DTD SVG 20010904//EN"
 "http://www.w3.org/TR/2001/REC-SVG-20010904/DTD/svg10.dtd">
<svg version="1.0" xmlns="http://www.w3.org/2000/svg"
 width="512.000000pt" height="512.000000pt" viewBox="0 0 512.000000 512.000000"
 preserveAspectRatio="xMidYMid meet">

<g transform="translate(0.000000,512.000000) scale(0.100000,-0.100000)"
fill="#000000" stroke="none">
<path d="M1935 5108 c-294 -29 -610 -133 -873 -287 -218 -127 -471 -356 -631
-570 -147 -197 -250 -393 -322 -612 -143 -436 -143 -912 0 -1348 72 -219 175
-415 322 -612 160 -214 413 -443 631 -570 425 -248 911 -343 1404 -274 350 49
727 208 990 416 34 27 66 49 70 49 5 0 294 -285 644 -634 548 -547 641 -636
683 -651 159 -59 311 93 252 252 -15 42 -104 135 -651 683 -349 350 -634 639
-634 644 0 4 22 36 49 70 97 123 209 316 275 476 258 628 209 1332 -133 1918
-72 124 -218 310 -336 427 -117 118 -303 264 -427 336 -395 231 -861 333
-1313 287z m510 -411 c240 -45 430 -116 625 -235 336 -206 601 -530 733 -897
77 -212 101 -359 101 -600 0 -241 -24 -388 -101 -600 -173 -481 -567 -875
-1048 -1048 -212 -77 -359 -101 -600 -101 -183 0 -276 10 -420 45 -622 152
-1126 652 -1279 1268 -43 171 -51 239 -51 436 0 197 8 265 51 436 152 611 651
1110 1263 1263 83 21 137 31 276 50 62 9 373 -3 450 -17z"/>
</g>
</svg>
