<?xml version="1.0" encoding="UTF-8"?>
<!DOCTYPE svg PUBLIC "-//W3C//DTD SVG 1.1//EN" "http://www.w3.org/Graphics/SVG/1.1/DTD/svg11.dtd">
<svg xmlns="http://www.w3.org/2000/svg" version="1.1" width="2000px" height="2000px" style="shape-rendering:geometricPrecision; text-rendering:geometricPrecision; image-rendering:optimizeQuality; fill-rule:evenodd; clip-rule:evenodd" xmlns:xlink="http://www.w3.org/1999/xlink">
<g><path style="opacity:0.976" fill="#000000" d="M 628.5,-0.5 C 949.167,-0.5 1269.83,-0.5 1590.5,-0.5C 1591.47,1.19266 1592.81,2.69266 1594.5,4C 1599.21,4.37514 1603.88,5.04181 1608.5,6C 1609.17,6.66667 1609.83,7.33333 1610.5,8C 1615.68,7.75133 1620.35,9.08467 1624.5,12C 1628.79,11.792 1632.46,13.1253 1635.5,16C 1639.57,15.7072 1642.9,17.0405 1645.5,20C 1647.5,20.3333 1649.5,20.6667 1651.5,21C 1687.99,37.8118 1720.99,60.3118 1750.5,88.5C 1759.92,98.7424 1769.08,109.076 1778,119.5C 1784.01,129.315 1790.51,138.648 1797.5,147.5C 1799.87,151.574 1801.87,155.907 1803.5,160.5C 1804.24,161.287 1805.08,161.953 1806,162.5C 1808.13,168.102 1810.8,173.435 1814,178.5C 1813.88,181.921 1815.21,184.588 1818,186.5C 1823.18,199.802 1827.52,213.469 1831,227.5C 1831.67,228.167 1832.33,228.833 1833,229.5C 1833.33,233.5 1833.67,237.5 1834,241.5C 1835.69,243.359 1837.19,245.359 1838.5,247.5C 1839.5,673.166 1839.83,1098.83 1839.5,1524.5C 1837.52,1524.38 1835.85,1525.05 1834.5,1526.5C 1833.09,1530.75 1831.26,1534.75 1829,1538.5C 1821.86,1545.98 1814.36,1553.14 1806.5,1560C 1801.58,1562.77 1796.58,1565.44 1791.5,1568C 1787.09,1568.21 1783.09,1569.54 1779.5,1572C 1767.17,1572.67 1754.83,1572.67 1742.5,1572C 1735.71,1569.69 1729.04,1567.03 1722.5,1564C 1711.11,1557.11 1701.28,1548.27 1693,1537.5C 1693.09,1534.5 1691.76,1532.5 1689,1531.5C 1689.22,1528.18 1687.89,1525.84 1685,1524.5C 1685.04,1519.71 1683.7,1515.37 1681,1511.5C 1680.67,1110.17 1680.33,708.833 1680,307.5C 1678.01,293.521 1675.51,279.687 1672.5,266C 1672.23,264.393 1671.4,263.226 1670,262.5C 1669.7,259.086 1669.04,255.753 1668,252.5C 1665.35,247.201 1662.68,241.868 1660,236.5C 1656.8,233.32 1654.47,229.653 1653,225.5C 1636.9,203.357 1617.07,186.191 1593.5,174C 1586.91,171.125 1580.25,168.458 1573.5,166C 1570.5,165.667 1567.5,165.333 1564.5,165C 1563.83,164.333 1563.17,163.667 1562.5,163C 1552.74,162.258 1543.08,160.925 1533.5,159C 1236.17,158.667 938.833,158.333 641.5,158C 637.907,155.542 633.907,154.208 629.5,154C 624.262,151.697 619.262,149.03 614.5,146C 606.673,139.182 599.173,132.015 592,124.5C 592.145,121.077 590.645,119.077 587.5,118.5C 588.109,114.995 586.942,112.328 584,110.5C 584.208,106.209 582.875,102.542 580,99.5C 579.333,85.1667 579.333,70.8333 580,56.5C 582.148,51.3523 584.481,46.3523 587,41.5C 587.494,39.8659 587.66,38.1992 587.5,36.5C 590.645,35.9233 592.145,33.9233 592,30.5C 601.279,18.7279 612.779,9.72794 626.5,3.5C 627.705,2.42312 628.372,1.08979 628.5,-0.5 Z"/></g>
<g><path style="opacity:0.995" fill="#000000" d="M 1278.5,1999.5 C 987.167,1999.5 695.833,1999.5 404.5,1999.5C 404.084,1997.25 402.751,1995.75 400.5,1995C 394.741,1995.11 389.408,1993.78 384.5,1991C 380.75,1990.74 377.084,1990.07 373.5,1989C 372.833,1988.33 372.167,1987.67 371.5,1987C 368.833,1986.67 366.167,1986.33 363.5,1986C 358.833,1983.67 354.167,1981.33 349.5,1979C 288.128,1954.48 239.461,1914.32 203.5,1858.5C 201.727,1855.94 199.727,1853.61 197.5,1851.5C 196.652,1849.59 196.318,1847.59 196.5,1845.5C 195.325,1845.72 194.325,1845.39 193.5,1844.5C 187.833,1833.17 182.167,1821.83 176.5,1810.5C 177.326,1808.45 176.659,1806.78 174.5,1805.5C 173.56,1802.2 172.727,1798.86 172,1795.5C 171.586,1795.04 171.086,1794.71 170.5,1794.5C 168.632,1787.45 166.799,1780.45 165,1773.5C 164.385,1771.88 163.385,1770.55 162,1769.5C 161.667,1765.5 161.333,1761.5 161,1757.5C 159.732,1755.28 158.232,1753.28 156.5,1751.5C 155.167,1355.83 155.167,960.167 156.5,564.5C 160.892,559.008 162.725,552.674 162,545.5C 163.158,545.002 163.991,544.169 164.5,543C 164.794,537.746 166.294,532.913 169,528.5C 171.011,522.731 172.678,516.731 174,510.5C 176.547,508.998 177.38,506.998 176.5,504.5C 177.137,502.697 178.303,501.364 180,500.5C 180.333,498.833 180.667,497.167 181,495.5C 186.19,484.967 191.524,474.633 197,464.5C 200.846,460.822 203.679,456.489 205.5,451.5C 206.325,450.614 207.325,450.281 208.5,450.5C 208.351,449.448 208.517,448.448 209,447.5C 236.926,408.564 271.426,377.064 312.5,353C 316.3,350.871 320.3,349.204 324.5,348C 328.05,345.522 331.716,343.189 335.5,341C 343.833,338 352.167,335 360.5,332C 363.044,329.907 366.044,328.907 369.5,329C 373.227,326.014 377.561,324.681 382.5,325C 384.618,324.74 386.284,323.74 387.5,322C 391.167,321.667 394.833,321.333 398.5,321C 400.618,320.74 402.284,319.74 403.5,318C 411.82,318.318 419.82,316.984 427.5,314C 703.5,313.333 979.5,313.333 1255.5,314C 1262.81,317.026 1270.48,318.359 1278.5,318C 1280.17,319 1281.83,320 1283.5,321C 1287.5,321.333 1291.5,321.667 1295.5,322C 1296.55,323.385 1297.88,324.385 1299.5,325C 1302.5,325.333 1305.5,325.667 1308.5,326C 1311.94,328.789 1315.94,330.123 1320.5,330C 1323.69,332.542 1327.35,334.042 1331.5,334.5C 1407.24,366.219 1463.57,419.219 1500.5,493.5C 1501.55,496.08 1502.22,498.746 1502.5,501.5C 1503.5,501.5 1504.5,501.5 1505.5,501.5C 1504.77,505.219 1505.77,508.219 1508.5,510.5C 1509.22,513.313 1509.89,516.146 1510.5,519C 1511.01,520.169 1511.84,521.002 1513,521.5C 1513.33,524.167 1513.67,526.833 1514,529.5C 1514.42,531.291 1515.42,532.624 1517,533.5C 1517.33,536.833 1517.67,540.167 1518,543.5C 1519.3,544.09 1520.13,545.09 1520.5,546.5C 1521.21,550.804 1521.71,555.137 1522,559.5C 1523.74,560.716 1524.74,562.382 1525,564.5C 1524.79,573.115 1526.13,581.449 1529,589.5C 1529.67,968.167 1529.67,1346.83 1529,1725.5C 1526.88,1740.76 1523.88,1755.76 1520,1770.5C 1519.59,1770.96 1519.09,1771.29 1518.5,1771.5C 1517.16,1779.03 1515.33,1786.36 1513,1793.5C 1511.84,1794 1511.01,1794.83 1510.5,1796C 1509.31,1802.17 1507.47,1808.01 1505,1813.5C 1502.21,1815.37 1500.88,1818.03 1501,1821.5C 1497.63,1827.19 1494.3,1832.86 1491,1838.5C 1490.37,1841.75 1488.87,1844.42 1486.5,1846.5C 1485.06,1851.12 1482.56,1855.12 1479,1858.5C 1478.67,1859.83 1478.33,1861.17 1478,1862.5C 1466.29,1877.37 1454.29,1892.03 1442,1906.5C 1430.17,1917.95 1418.01,1928.78 1405.5,1939C 1391.74,1948.44 1377.74,1957.44 1363.5,1966C 1358.17,1968.67 1352.83,1971.33 1347.5,1974C 1344.03,1973.88 1341.37,1975.21 1339.5,1978C 1335.54,1977.87 1332.2,1979.21 1329.5,1982C 1325.31,1981.97 1321.65,1983.3 1318.5,1986C 1313.98,1985.88 1309.98,1987.21 1306.5,1990C 1303.5,1990.33 1300.5,1990.67 1297.5,1991C 1295.97,1992.89 1293.97,1993.89 1291.5,1994C 1288.17,1994.33 1284.83,1994.67 1281.5,1995C 1279.86,1996.13 1278.86,1997.63 1278.5,1999.5 Z"/></g>
</svg>
