<?xml version="1.0" encoding="UTF-8"?>
<!DOCTYPE svg PUBLIC "-//W3C//DTD SVG 1.1//EN" "http://www.w3.org/Graphics/SVG/1.1/DTD/svg11.dtd">
<svg xmlns="http://www.w3.org/2000/svg" version="1.1" width="512px" height="512px" style="shape-rendering:geometricPrecision; text-rendering:geometricPrecision; image-rendering:optimizeQuality; fill-rule:evenodd; clip-rule:evenodd" xmlns:xlink="http://www.w3.org/1999/xlink">
<g><path style="opacity:0.983" fill="#000000" d="M 417.5,-0.5 C 422.5,-0.5 427.5,-0.5 432.5,-0.5C 444.538,1.68483 455.205,6.85149 464.5,15C 477.03,27.1956 489.196,39.6956 501,52.5C 505.965,59.5909 509.465,67.2576 511.5,75.5C 511.5,82.8333 511.5,90.1667 511.5,97.5C 509.051,106.068 505.218,114.068 500,121.5C 485.653,136.014 471.153,150.347 456.5,164.5C 419.824,127.325 383.157,90.4915 346.5,54C 360.833,39.6667 375.167,25.3333 389.5,11C 397.997,4.89595 407.331,1.06261 417.5,-0.5 Z"/></g>
<g><path style="opacity:0.99" fill="#000000" d="M 16.5,511.5 C 12.8333,511.5 9.16667,511.5 5.5,511.5C 3.16667,509.833 1.16667,507.833 -0.5,505.5C -0.5,501.833 -0.5,498.167 -0.5,494.5C 10.3078,452.605 21.1411,410.605 32,368.5C 126.167,274.333 220.333,180.167 314.5,86C 315.5,85.3333 316.5,85.3333 317.5,86C 353.333,121.833 389.167,157.667 425,193.5C 425.667,194.5 425.667,195.5 425,196.5C 330.833,290.667 236.667,384.833 142.5,479C 100.395,489.859 58.3945,500.692 16.5,511.5 Z"/></g>
</svg>
