<?xml version="1.0" encoding="UTF-8"?>
<!DOCTYPE svg PUBLIC "-//W3C//DTD SVG 1.1//EN" "http://www.w3.org/Graphics/SVG/1.1/DTD/svg11.dtd">
<svg xmlns="http://www.w3.org/2000/svg" version="1.1" width="410px" height="359px" style="shape-rendering:geometricPrecision; text-rendering:geometricPrecision; image-rendering:optimizeQuality; fill-rule:evenodd; clip-rule:evenodd" xmlns:xlink="http://www.w3.org/1999/xlink">
<g><path style="opacity:1" fill="#050505" d="M 278.5,-0.5 C 280.5,-0.5 282.5,-0.5 284.5,-0.5C 289.106,0.43214 293.439,2.26547 297.5,5C 333.035,40.368 368.368,75.868 403.5,111.5C 403.427,113.027 404.094,114.027 405.5,114.5C 406.674,115.514 407.34,116.847 407.5,118.5C 408.275,123.797 408.608,129.13 408.5,134.5C 408.029,139.11 406.196,143.11 403,146.5C 368.167,181.333 333.333,216.167 298.5,251C 288.84,258.117 278.84,258.95 268.5,253.5C 268.027,252.094 267.027,251.427 265.5,251.5C 264.738,249.738 263.404,248.738 261.5,248.5C 253.943,239.078 252.943,229.078 258.5,218.5C 259.906,218.027 260.573,217.027 260.5,215.5C 281.146,195.521 301.479,175.188 321.5,154.5C 270.668,153.169 220.002,153.169 169.5,154.5C 118.343,160.474 82.1764,186.807 61,233.5C 56.4333,245.1 53.4333,257.1 52,269.5C 51.9605,293.55 51.2938,317.55 50,341.5C 46.9809,349.684 41.4809,355.351 33.5,358.5C 28.1667,358.5 22.8333,358.5 17.5,358.5C 8.74454,354.745 2.74454,348.412 -0.5,339.5C -0.5,314.833 -0.5,290.167 -0.5,265.5C 0.746469,255.691 2.74647,246.024 5.5,236.5C 6.92381,234.485 7.59047,232.152 7.5,229.5C 11.2913,215.593 16.958,202.593 24.5,190.5C 25.9063,190.027 26.573,189.027 26.5,187.5C 27.9063,187.027 28.573,186.027 28.5,184.5C 30.8545,179.12 34.1879,174.454 38.5,170.5C 40.2624,169.738 41.2624,168.404 41.5,166.5C 44.1231,162.209 47.4564,158.543 51.5,155.5C 55.1002,153.57 58.1002,150.903 60.5,147.5C 60.5,146.833 60.8333,146.5 61.5,146.5C 64.0892,145.581 66.0892,143.914 67.5,141.5C 72.6068,136.73 78.2734,132.73 84.5,129.5C 86.0269,129.573 87.0269,128.906 87.5,127.5C 99.5934,119.958 112.593,114.291 126.5,110.5C 129.152,110.59 131.485,109.924 133.5,108.5C 142.807,105.448 152.473,103.781 162.5,103.5C 215.504,103.833 268.504,103.5 321.5,102.5C 321.376,101.893 321.043,101.56 320.5,101.5C 300.201,81.7017 280.035,61.7017 260,41.5C 254.005,31.1293 254.005,20.796 260,10.5C 261.704,8.62658 263.537,6.95991 265.5,5.5C 267.027,5.57298 268.027,4.90632 268.5,3.5C 271.622,1.57201 274.955,0.23868 278.5,-0.5 Z"/></g>
<g><path style="opacity:0.792" fill="#808080" d="M 268.5,3.5 C 268.027,4.90632 267.027,5.57298 265.5,5.5C 265.973,4.09368 266.973,3.42702 268.5,3.5 Z"/></g>
<g><path style="opacity:0.8" fill="#393939" d="M 320.5,101.5 C 321.043,101.56 321.376,101.893 321.5,102.5C 268.504,103.5 215.504,103.833 162.5,103.5C 215.167,102.833 267.833,102.167 320.5,101.5 Z"/></g>
<g><path style="opacity:0.937" fill="#5b5b5b" d="M 133.5,108.5 C 131.485,109.924 129.152,110.59 126.5,110.5C 128.515,109.076 130.848,108.41 133.5,108.5 Z"/></g>
<g><path style="opacity:0.424" fill="#a3a3a3" d="M 403.5,111.5 C 404.906,111.973 405.573,112.973 405.5,114.5C 404.094,114.027 403.427,113.027 403.5,111.5 Z"/></g>
<g><path style="opacity:0.812" fill="#7a7a7a" d="M 87.5,127.5 C 87.0269,128.906 86.0269,129.573 84.5,129.5C 84.9731,128.094 85.9731,127.427 87.5,127.5 Z"/></g>
<g><path style="opacity:0.769" fill="#666666" d="M 407.5,118.5 C 408.167,119.5 408.833,120.5 409.5,121.5C 409.5,125.833 409.5,130.167 409.5,134.5C 409.167,134.5 408.833,134.5 408.5,134.5C 408.608,129.13 408.275,123.797 407.5,118.5 Z"/></g>
<g><path style="opacity:0.929" fill="#585858" d="M 67.5,141.5 C 66.0892,143.914 64.0892,145.581 61.5,146.5C 62.9108,144.086 64.9108,142.419 67.5,141.5 Z"/></g>
<g><path style="opacity:0.835" fill="#646464" d="M 60.5,147.5 C 58.1002,150.903 55.1002,153.57 51.5,155.5C 53.8998,152.097 56.8998,149.43 60.5,147.5 Z"/></g>
<g><path style="opacity:0.4" fill="#939393" d="M 169.5,154.5 C 220.002,153.169 270.668,153.169 321.5,154.5C 301.479,175.188 281.146,195.521 260.5,215.5C 279.58,194.918 299.247,174.751 319.5,155C 269.501,154.5 219.501,154.333 169.5,154.5 Z"/></g>
<g><path style="opacity:0.851" fill="#7e7e7e" d="M 41.5,166.5 C 41.2624,168.404 40.2624,169.738 38.5,170.5C 38.7376,168.596 39.7376,167.262 41.5,166.5 Z"/></g>
<g><path style="opacity:0.537" fill="#828282" d="M 28.5,184.5 C 28.573,186.027 27.9063,187.027 26.5,187.5C 26.427,185.973 27.0937,184.973 28.5,184.5 Z"/></g>
<g><path style="opacity:0.42" fill="#999999" d="M 26.5,187.5 C 26.573,189.027 25.9063,190.027 24.5,190.5C 24.427,188.973 25.0937,187.973 26.5,187.5 Z"/></g>
<g><path style="opacity:0.522" fill="#858585" d="M 260.5,215.5 C 260.573,217.027 259.906,218.027 258.5,218.5C 258.427,216.973 259.094,215.973 260.5,215.5 Z"/></g>
<g><path style="opacity:0.925" fill="#6c6c6c" d="M 7.5,229.5 C 7.59047,232.152 6.92381,234.485 5.5,236.5C 5.40953,233.848 6.07619,231.515 7.5,229.5 Z"/></g>
<g><path style="opacity:0.682" fill="#a0a0a0" d="M 261.5,248.5 C 263.404,248.738 264.738,249.738 265.5,251.5C 263.596,251.262 262.262,250.262 261.5,248.5 Z"/></g>
<g><path style="opacity:0.529" fill="#838383" d="M 265.5,251.5 C 267.027,251.427 268.027,252.094 268.5,253.5C 266.973,253.573 265.973,252.906 265.5,251.5 Z"/></g>
</svg>
