<?xml version="1.0" encoding="UTF-8"?>
<!DOCTYPE svg PUBLIC "-//W3C//DTD SVG 1.1//EN" "http://www.w3.org/Graphics/SVG/1.1/DTD/svg11.dtd">
<svg xmlns="http://www.w3.org/2000/svg" version="1.1" width="410px" height="359px" style="shape-rendering:geometricPrecision; text-rendering:geometricPrecision; image-rendering:optimizeQuality; fill-rule:evenodd; clip-rule:evenodd" xmlns:xlink="http://www.w3.org/1999/xlink">
<g><path style="opacity:1" fill="#030303" d="M 123.5,-0.5 C 127.5,-0.5 131.5,-0.5 135.5,-0.5C 153.451,8.52015 157.951,22.1868 149,40.5C 128.965,60.7017 108.799,80.7017 88.5,100.5C 87.9569,100.56 87.6236,100.893 87.5,101.5C 140.496,102.5 193.496,102.833 246.5,102.5C 272.958,104.543 297.625,112.209 320.5,125.5C 320.821,127.048 321.821,127.715 323.5,127.5C 340.308,137.638 354.974,150.305 367.5,165.5C 367.738,167.404 368.738,168.738 370.5,169.5C 374.812,173.454 378.145,178.12 380.5,183.5C 380.427,185.027 381.094,186.027 382.5,186.5C 382.427,188.027 383.094,189.027 384.5,189.5C 385.674,190.514 386.34,191.847 386.5,193.5C 386.427,195.027 387.094,196.027 388.5,196.5C 394.381,206.461 398.714,217.127 401.5,228.5C 401.41,231.152 402.076,233.485 403.5,235.5C 406.254,245.024 408.254,254.691 409.5,264.5C 409.5,289.167 409.5,313.833 409.5,338.5C 405.543,349.458 397.877,356.125 386.5,358.5C 384.5,358.5 382.5,358.5 380.5,358.5C 380.5,357.833 380.167,357.5 379.5,357.5C 377.485,356.076 375.152,355.41 372.5,355.5C 372.027,354.094 371.027,353.427 369.5,353.5C 369.027,352.094 368.027,351.427 366.5,351.5C 361.624,347.758 358.791,342.758 358,336.5C 357.667,313.833 357.333,291.167 357,268.5C 353.325,236.152 339.825,208.818 316.5,186.5C 315.738,184.738 314.404,183.738 312.5,183.5C 309.94,181.727 307.607,179.727 305.5,177.5C 305.027,176.094 304.027,175.427 302.5,175.5C 302.027,174.094 301.027,173.427 299.5,173.5C 280.53,161.844 259.863,155.177 237.5,153.5C 187.665,152.169 137.665,152.169 87.5,153.5C 107.521,174.188 127.854,194.521 148.5,214.5C 148.427,216.027 149.094,217.027 150.5,217.5C 155.95,227.84 155.117,237.84 148,247.5C 138.14,256.646 127.306,258.312 115.5,252.5C 115.027,251.094 114.027,250.427 112.5,250.5C 77.4506,214.45 41.7839,179.117 5.5,144.5C 2.48467,141.468 0.817999,137.801 0.5,133.5C 0.392122,128.13 0.725455,122.797 1.5,117.5C 1.6596,115.847 2.32627,114.514 3.5,113.5C 4.90632,113.027 5.57298,112.027 5.5,110.5C 5.83333,109.5 6.5,108.833 7.5,108.5C 43.4506,74.2165 78.7839,39.2165 113.5,3.5C 115.027,3.57298 116.027,2.90632 116.5,1.5C 119.152,1.59047 121.485,0.923808 123.5,-0.5 Z"/></g>
<g><path style="opacity:0.961" fill="#626262" d="M 119.5,-0.5 C 120.833,-0.5 122.167,-0.5 123.5,-0.5C 121.485,0.923808 119.152,1.59047 116.5,1.5C 117.5,0.833333 118.5,0.166667 119.5,-0.5 Z"/></g>
<g><path style="opacity:0.78" fill="#828282" d="M 116.5,1.5 C 116.027,2.90632 115.027,3.57298 113.5,3.5C 113.973,2.09368 114.973,1.42702 116.5,1.5 Z"/></g>
<g><path style="opacity:0.922" fill="#4b4b4b" d="M 113.5,3.5 C 78.7839,39.2165 43.4506,74.2165 7.5,108.5C 42.2161,72.7835 77.5494,37.7835 113.5,3.5 Z"/></g>
<g><path style="opacity:0.8" fill="#383838" d="M 88.5,100.5 C 141.167,101.167 193.833,101.833 246.5,102.5C 193.496,102.833 140.496,102.5 87.5,101.5C 87.6236,100.893 87.9569,100.56 88.5,100.5 Z"/></g>
<g><path style="opacity:0.424" fill="#a3a3a3" d="M 5.5,110.5 C 5.57298,112.027 4.90632,113.027 3.5,113.5C 3.42702,111.973 4.09368,110.973 5.5,110.5 Z"/></g>
<g><path style="opacity:0.929" fill="#7d7d7d" d="M 320.5,125.5 C 321.71,125.932 322.71,126.599 323.5,127.5C 321.821,127.715 320.821,127.048 320.5,125.5 Z"/></g>
<g><path style="opacity:0.769" fill="#666666" d="M 1.5,117.5 C 0.725455,122.797 0.392122,128.13 0.5,133.5C 0.166667,133.5 -0.166667,133.5 -0.5,133.5C -0.5,129.167 -0.5,124.833 -0.5,120.5C 0.166667,119.5 0.833333,118.5 1.5,117.5 Z"/></g>
<g><path style="opacity:0.659" fill="#a1a1a1" d="M 5.5,144.5 C 41.7839,179.117 77.4506,214.45 112.5,250.5C 76.2161,215.883 40.5494,180.55 5.5,144.5 Z"/></g>
<g><path style="opacity:0.4" fill="#9c9c9c" d="M 237.5,153.5 C 188.166,153.333 138.832,153.5 89.5,154C 109.753,173.751 129.42,193.918 148.5,214.5C 127.854,194.521 107.521,174.188 87.5,153.5C 137.665,152.169 187.665,152.169 237.5,153.5 Z"/></g>
<g><path style="opacity:0.851" fill="#7e7e7e" d="M 367.5,165.5 C 369.262,166.262 370.262,167.596 370.5,169.5C 368.738,168.738 367.738,167.404 367.5,165.5 Z"/></g>
<g><path style="opacity:0.502" fill="#8d8d8d" d="M 299.5,173.5 C 301.027,173.427 302.027,174.094 302.5,175.5C 300.973,175.573 299.973,174.906 299.5,173.5 Z"/></g>
<g><path style="opacity:0.6" fill="#7c7c7c" d="M 302.5,175.5 C 304.027,175.427 305.027,176.094 305.5,177.5C 303.973,177.573 302.973,176.906 302.5,175.5 Z"/></g>
<g><path style="opacity:0.749" fill="#969696" d="M 312.5,183.5 C 314.404,183.738 315.738,184.738 316.5,186.5C 314.596,186.262 313.262,185.262 312.5,183.5 Z"/></g>
<g><path style="opacity:0.537" fill="#828282" d="M 380.5,183.5 C 381.906,183.973 382.573,184.973 382.5,186.5C 381.094,186.027 380.427,185.027 380.5,183.5 Z"/></g>
<g><path style="opacity:0.42" fill="#999999" d="M 382.5,186.5 C 383.906,186.973 384.573,187.973 384.5,189.5C 383.094,189.027 382.427,188.027 382.5,186.5 Z"/></g>
<g><path style="opacity:0.384" fill="#9a9a9a" d="M 386.5,193.5 C 387.906,193.973 388.573,194.973 388.5,196.5C 387.094,196.027 386.427,195.027 386.5,193.5 Z"/></g>
<g><path style="opacity:0.522" fill="#858585" d="M 148.5,214.5 C 149.906,214.973 150.573,215.973 150.5,217.5C 149.094,217.027 148.427,216.027 148.5,214.5 Z"/></g>
<g><path style="opacity:0.925" fill="#6c6c6c" d="M 401.5,228.5 C 402.924,230.515 403.59,232.848 403.5,235.5C 402.076,233.485 401.41,231.152 401.5,228.5 Z"/></g>
<g><path style="opacity:0.533" fill="#848484" d="M 112.5,250.5 C 114.027,250.427 115.027,251.094 115.5,252.5C 113.973,252.573 112.973,251.906 112.5,250.5 Z"/></g>
<g><path style="opacity:0.533" fill="#8f8f8f" d="M 366.5,351.5 C 368.027,351.427 369.027,352.094 369.5,353.5C 367.973,353.573 366.973,352.906 366.5,351.5 Z"/></g>
<g><path style="opacity:0.353" fill="#a2a2a2" d="M 369.5,353.5 C 371.027,353.427 372.027,354.094 372.5,355.5C 370.973,355.573 369.973,354.906 369.5,353.5 Z"/></g>
<g><path style="opacity:0.957" fill="#6c6c6c" d="M 372.5,355.5 C 375.152,355.41 377.485,356.076 379.5,357.5C 376.848,357.59 374.515,356.924 372.5,355.5 Z"/></g>
</svg>
