<?xml version="1.0" encoding="UTF-8"?>
<svg version="1.1" xmlns="http://www.w3.org/2000/svg" width="974" height="843">
<path d="M0 0 C4.18130172 2.49165662 7.28608311 5.57529577 10.69029236 9.02641296 C11.77201721 10.10507126 11.77201721 10.10507126 12.87559509 11.20552063 C15.25156586 13.57848998 17.61663167 15.96201476 19.98155212 18.34599304 C21.6371414 20.00464239 23.29332424 21.66269947 24.95007324 23.32019043 C28.42031732 26.79503433 31.88559843 30.27472504 35.34703064 33.75834656 C39.76955307 38.20908447 44.20064225 42.651164 48.63505459 47.0900526 C52.87871227 51.33888587 57.11767871 55.59238773 61.35655212 59.84599304 C62.15927488 60.65059652 62.96199764 61.4552 63.78904533 62.28418541 C66.07903924 64.58110949 68.36563093 66.88136651 70.65122986 69.18266296 C71.31794205 69.85049301 71.98465424 70.51832306 72.67156982 71.20639038 C75.75485111 74.31752865 78.73745727 77.46746104 81.59301758 80.78955078 C85.86061503 85.72371378 90.47450232 90.29130145 95.09873962 94.88896179 C96.0738478 95.86214627 97.04872521 96.83556202 98.02339172 97.80918884 C100.10789259 99.8905504 102.19393114 101.97035353 104.28120422 104.04893494 C107.58816289 107.34226557 110.89120952 110.63950159 114.19371033 113.93730164 C121.20465504 120.9371896 128.21982941 127.93283159 135.23545837 134.92802429 C142.81184832 142.4823445 150.38748612 150.03741005 157.95823574 157.5973835 C161.23480033 160.86899515 164.51378012 164.13816004 167.79469299 167.40541077 C169.84192692 169.44513481 171.88704146 171.48697405 173.93161392 173.52936554 C175.31807861 174.91309501 176.70706187 176.29429953 178.09614563 177.67539978 C182.40805049 181.98694316 186.54804502 186.36486224 190.52241707 190.98815918 C193.65374398 194.5341051 197.0216692 197.84443263 200.37388611 201.17997742 C201.54584785 202.3521582 201.54584785 202.3521582 202.7414856 203.54801941 C205.29830864 206.10415147 207.85864444 208.65673332 210.41905212 211.20927429 C212.20288605 212.99124115 213.98649784 214.7734304 215.76989746 216.55583191 C219.96815015 220.75066988 224.16862144 224.94327743 228.37019926 229.13478422 C233.15823958 233.91159961 237.94339909 238.69129647 242.72833335 243.47122288 C252.56086713 253.29333853 262.39696574 263.1118777 272.23545837 272.92802429 C276.48389088 269.35575519 280.57917399 265.71003187 284.50889587 261.78398132 C284.98635254 261.30827698 285.4638092 260.83257263 285.95573425 260.342453 C287.50980745 258.79272673 289.06025726 257.23943558 290.61045837 255.68583679 C291.70455112 254.59241925 292.79879214 253.49915006 293.89317322 252.40602112 C296.17751551 250.12314621 298.4600575 247.83849066 300.74131775 245.55253601 C303.64599697 242.64216692 306.55513452 239.73630242 309.46565247 236.83177376 C311.72387237 234.57719126 313.97967571 232.32020291 316.23478699 230.06251144 C317.30561722 228.99102036 318.37717345 227.92025424 319.44950867 226.85026932 C320.9561316 225.34622484 322.45944711 223.83894471 323.96202087 222.33085632 C324.81360779 221.47847382 325.6651947 220.62609131 326.54258728 219.74787903 C328.5501412 217.64565793 330.44711715 215.53277496 332.33384705 213.32765198 C337.2575879 207.66051338 342.61671279 202.42340928 347.93467712 197.13114929 C349.10682661 195.9609224 350.27874611 194.79046509 351.45045471 193.61979675 C353.96057594 191.11282025 356.47223818 188.60740187 358.98512268 186.10319519 C362.96416596 182.13775128 366.93932344 178.16842712 370.91392517 174.1985321 C380.06799716 165.05646853 389.22708857 155.91943913 398.38623047 146.78245544 C406.78541712 138.40348451 415.18352292 130.0234377 423.57757664 121.63932419 C427.52317535 117.69868695 431.47119435 113.76049603 435.42112732 109.82420349 C437.88353295 107.36929317 440.34383269 104.91228045 442.80358505 102.45471191 C443.93822562 101.32193241 445.07372476 100.19001208 446.21017838 99.05905151 C451.51233418 93.78170388 456.72398684 88.48871541 461.5918541 82.80138779 C464.67298891 79.28954157 467.99478849 76.01272006 471.29454041 72.70780945 C472.06781677 71.92956818 472.84109314 71.1513269 473.63780212 70.34950256 C476.17020977 67.80261073 478.70638777 65.25952034 481.24327087 62.71708679 C482.1132156 61.84431469 482.98316032 60.97154259 483.87946701 60.07232285 C488.4731262 55.46373544 493.06960544 50.85798354 497.66856384 46.25468445 C501.94586043 41.97313673 506.21551599 37.68406778 510.48191941 33.39166796 C514.60114466 29.24822187 518.72859529 25.11304892 522.85908127 20.98083115 C524.61027207 19.22661238 526.3589599 17.46989125 528.10509109 15.71063614 C530.54144474 13.2572654 532.98704362 10.81349197 535.43516541 8.37187195 C536.15425079 7.64357178 536.87333618 6.91527161 537.61421204 6.16490173 C538.28410156 5.50058136 538.95399109 4.83626099 539.6441803 4.15180969 C540.22042711 3.57409632 540.79667393 2.99638294 541.39038277 2.4011631 C545.65773055 -1.00595778 549.88666656 -1.625299 555.23545837 -1.07197571 C559.60607308 0.42986103 561.80025141 2.22081298 564.23545837 6.17802429 C566.03158336 12.91349299 564.91594093 17.00802991 561.60655212 22.90068054 C561.06570984 23.87118347 560.52486755 24.8416864 559.96763611 25.84159851 C559.11020813 27.36937927 559.11020813 27.36937927 558.23545837 28.92802429 C557.1093605 30.97299303 555.98438272 33.01857892 554.86045837 35.06474304 C548.23271721 47.05818957 541.51277531 58.98252664 534.57505798 70.80033875 C530.09422915 78.4367338 525.68222763 86.11092805 521.29795837 93.80302429 C516.1350617 102.85900359 510.95180105 111.90267259 505.73545837 120.92802429 C500.54305398 129.9134326 495.37864729 138.91439306 490.23545837 147.92802429 C484.47961293 158.01535903 478.690816 168.08317382 472.87998962 178.13896179 C468.30841215 186.05536221 463.76598904 193.98809959 459.23545837 201.92802429 C453.47961293 212.01535903 447.690816 222.08317382 441.87998962 232.13896179 C437.30841215 240.05536221 432.76598904 247.98809959 428.23545837 255.92802429 C423.09226904 264.94165626 417.92770346 273.94252346 412.73545837 282.92802429 C407.56714786 291.87356897 402.42129512 300.83165845 397.29795837 309.80302429 C396.96685059 310.38273987 396.6357428 310.96245544 396.29460144 311.55973816 C392.9202421 317.46820054 389.5485388 323.3781728 386.17961121 329.28973389 C384.49068396 332.25294839 382.80075253 335.21558934 381.11045837 338.17802429 C380.77765869 338.76145599 380.44485901 339.3448877 380.10197449 339.94599915 C376.10793072 346.94497791 372.08461159 353.92551724 367.99933213 360.8717376 C366.30630977 363.76280828 364.63359366 366.66474789 362.96220875 369.56835747 C360.55712146 373.72433073 358.05802522 377.79344658 355.46399212 381.83372688 C344.87605526 398.82933446 341.22875796 414.09428949 339.15533446 433.83149162 C338.7286871 437.7591475 338.23240659 441.67805871 337.74235249 445.59821892 C337.0321621 451.32185873 336.34077628 457.04713183 335.67537495 462.77615438 C334.5106379 472.79986517 333.21906827 482.8014442 331.8429718 492.79820251 C331.69341371 493.88598458 331.69341371 493.88598458 331.54083424 494.99574204 C331.13757167 497.9263366 330.73357617 500.85682826 330.32827791 503.78714202 C329.29683251 511.24749628 328.29058894 518.71118689 327.28692483 526.17532189 C326.87533349 529.2359486 326.46300844 532.2964763 326.05070578 535.35700726 C325.7360918 537.69247243 325.4215845 540.02795195 325.10708404 542.36343241 C324.11502706 549.72942744 323.12138909 557.09520931 322.12796 564.46101938 C320.16368844 579.02554807 318.20074392 593.59025527 316.2386322 608.15507507 C314.35355594 622.1480474 312.4675181 636.14088967 310.58042908 650.1335907 C310.46341651 651.00123594 310.34640394 651.86888119 310.22584554 652.76281871 C310.05056497 654.06251789 310.05056497 654.06251789 309.87174338 655.38847363 C309.63622913 657.13480696 309.40071539 658.88114036 309.16520214 660.62747383 C309.04893095 661.48962604 308.93265977 662.35177825 308.81286521 663.24005628 C306.98380806 676.80285318 305.15565353 690.36577176 303.32757291 703.92870031 C302.67544377 708.76689639 302.02318178 713.60507454 301.37080948 718.44323785 C295.78744668 759.79479251 295.78744668 759.79479251 290.29136658 801.15800476 C290.1954505 801.88606457 290.09953442 802.61412438 290.0007118 803.36424661 C289.82003877 804.7372054 289.63978287 806.11021917 289.45999295 807.48329389 C289.21203821 809.3741909 288.96146544 811.26474402 288.71080971 813.15528488 C288.36979805 815.86180535 288.05614681 818.56289678 287.77058983 821.27513504 C287.69070798 821.99829348 287.61082613 822.72145191 287.52852362 823.46652424 C287.30831689 825.47481298 287.10056334 827.48445604 286.8936491 829.49415779 C285.99517961 834.1815898 283.99361843 837.92149625 280.23545837 840.92802429 C275.35020007 842.84723291 270.35685872 842.30182441 265.48545837 840.67802429 C262.19510481 838.90629545 261.10953829 838.04943815 259.23545837 834.92802429 C258.5966568 832.168437 258.5966568 832.168437 258.21092224 828.91098022 C257.97549965 827.03183961 257.97549965 827.03183961 257.73532104 825.11473656 C257.65506872 824.4365398 257.5748164 823.75834304 257.49213219 823.05959487 C257.13594689 820.10162233 256.7365706 817.14993542 256.33982849 814.19717264 C255.88415215 810.79729703 255.43962985 807.39598384 254.99411201 803.99476457 C254.47783029 800.05429534 253.95946212 796.1141012 253.44126892 792.17388296 C253.15960322 790.03207989 252.87801926 787.89026606 252.59651184 785.74844217 C246.54912775 739.73837885 240.40775152 693.74146223 234.20420837 647.75224304 C234.00971572 646.31028068 233.81522338 644.86831828 233.62073135 643.42635584 C231.25994043 625.92415889 228.89675937 608.42228501 226.53257847 590.9205457 C225.12117751 580.47201716 223.71032868 570.02341419 222.2999115 559.57475281 C222.14921956 558.45839883 222.14921956 558.45839883 221.99548334 557.31949224 C220.89008611 549.13041023 219.784811 540.94131173 218.67961884 532.75220203 C218.58169844 532.02664795 218.48377805 531.30109386 218.38289037 530.55355329 C218.28532126 529.83060181 218.18775214 529.10765034 218.08722639 528.36279124 C217.99002646 527.64257533 217.89282654 526.92235943 217.79268116 526.1803188 C217.5974108 524.73342696 217.40214268 523.28653482 217.20687681 521.83964238 C216.08511187 513.5275695 214.96312696 505.21552645 213.84017196 496.90361424 C213.40098735 493.65273969 212.96208858 490.40182697 212.52359724 487.15085882 C211.689496 480.96760872 210.85256185 474.78477599 210.00855255 468.60286999 C208.61853227 458.39534212 207.24756419 448.18860043 206.02597189 437.9593448 C205.5288826 433.79999577 205.01582918 429.6426736 204.5025034 425.48530161 C204.16545408 422.69160586 203.85467717 419.89587168 203.54502106 417.0990324 C201.87628 403.0714016 197.39718117 393.00800648 189.01963806 381.49491882 C186.02720021 377.18970651 183.66693164 372.56519701 181.23545837 367.92802429 C176.58124764 359.27509276 171.69804403 350.77394462 166.72325134 342.30204773 C162.21626119 334.62383569 157.77113935 326.91183941 153.36045837 319.17802429 C152.86068481 318.30195526 152.86068481 318.30195526 152.35081482 317.40818787 C150.6557985 314.43664876 148.96153603 311.46468086 147.26768494 308.49247742 C145.25671842 304.96442367 143.24269628 301.43812181 141.22764587 297.91239929 C140.89804871 297.33570496 140.56845154 296.75901062 140.22886658 296.1648407 C139.23111652 294.41920511 138.23330066 292.67360716 137.23545837 290.92802429 C133.54882522 284.478785 129.86233169 278.02947804 126.18415833 271.57540894 C124.49366762 268.60919035 122.80229902 265.64347309 121.11045837 262.67802429 C120.77790039 262.09507599 120.44534241 261.51212769 120.10270691 260.91151428 C115.4875779 252.8255646 110.81924025 244.77229658 106.11045837 236.74052429 C100.78183023 227.65006848 95.60632677 218.48226901 90.48057556 209.27616882 C85.95955272 201.17484851 81.31371833 193.15290171 76.62168884 185.14970398 C72.15266909 177.52003288 67.74209706 169.858106 63.36045837 162.17802429 C62.86140991 161.30354141 62.86140991 161.30354141 62.35227966 160.41139221 C59.63782147 155.65420338 56.92619312 150.89540328 54.21470642 146.13652039 C51.84794402 141.9829345 49.4799363 137.83006169 47.11045837 133.67802429 C46.77808167 133.09543854 46.44570496 132.51285278 46.10325623 131.91261292 C41.48795398 123.82629011 36.8194477 115.77265043 32.11045837 107.74052429 C26.78183023 98.65006848 21.60632677 89.48226901 16.48057556 80.27616882 C12.51817362 73.17585359 8.47039489 66.13135302 4.36045837 59.11552429 C3.79754089 58.14985535 3.23462341 57.1841864 2.65464783 56.18925476 C-0.22030771 51.25948855 -3.1115099 46.34062676 -6.03926086 41.44207764 C-7.53416199 38.93256547 -9.01381664 36.41426099 -10.49092102 33.89424133 C-11.20486378 32.68394888 -11.92519691 31.47739926 -12.65242004 30.27503967 C-16.8198093 23.37833472 -20.36625485 17.20403103 -19.76454163 8.92802429 C-18.29566169 4.67600341 -16.63990732 2.22902267 -12.76454163 -0.07197571 C-8.27681036 -1.56788613 -4.4498206 -1.72545768 0 0 Z " fill="#000000" transform="translate(214.76454162597656,1.0719757080078125)"/>
<path d="M0 0 C0.79802284 0.31851331 1.59604568 0.63702662 2.41825104 0.96519184 C5.0619627 2.0234796 7.69893252 3.09759496 10.33618164 4.171875 C12.22674362 4.93239099 14.11770951 5.69190355 16.00904846 6.45048523 C21.11160624 8.50022277 26.20851767 10.56366952 31.30453491 12.62960434 C36.68156767 14.80661267 42.06380521 16.9706757 47.44555664 19.13598633 C56.25925707 22.68385054 65.0700725 26.23878296 73.87866211 29.79931641 C85.25777097 34.3986353 96.64303679 38.98247916 108.03149414 43.55859375 C111.40181062 44.91307643 114.7720849 46.26766409 118.14233398 47.62231445 C118.96403328 47.95258227 119.78573257 48.28285009 120.63233185 48.62312603 C129.74917722 52.28800618 138.86294715 55.96051502 147.97680664 59.6328125 C161.64918616 65.14174702 175.32475151 70.64270391 189.0026741 76.13786125 C194.91737518 78.51425075 200.83176757 80.89140848 206.74619484 83.26847935 C211.45964378 85.16276417 216.17329566 87.05654035 220.88745117 88.94906616 C230.16295244 92.67309248 239.43581746 96.40340127 248.70102882 100.1529665 C253.19512451 101.97076643 257.6940557 103.77575847 262.19775486 105.56962681 C264.9231424 106.65790909 267.64426473 107.75654663 270.36432457 108.85806847 C272.19137701 109.5942271 274.02356388 110.31760312 275.85591125 111.04048157 C285.91655148 115.13737708 285.91655148 115.13737708 289.55883789 119.921875 C291.26559186 125.0421369 291.41139392 129.85308033 289.05883789 134.734375 C287.00825419 137.80672721 284.71365788 139.54376584 281.10510445 140.62734795 C277.92483715 140.99520997 275.1776335 140.64915354 272.006073 140.19680786 C271.03041864 140.05806171 271.03041864 140.05806171 270.03505409 139.91651261 C261.22913433 138.63029797 252.47357596 137.03411196 243.71557617 135.46044922 C241.75932214 135.11145531 239.80301666 134.76274968 237.84666443 134.41430664 C232.54989233 133.47005507 227.25385277 132.52175286 221.95794153 131.57268667 C216.30789722 130.56086952 210.65718863 129.552775 205.00656128 128.54421997 C195.44156956 126.83648451 185.87700605 125.12636868 176.31274414 123.41455078 C166.69293142 121.69279169 157.07284917 119.97255245 147.45239258 118.25439453 C146.28730769 118.0463166 145.12222281 117.83823867 143.92183232 117.62385535 C141.57431301 117.20461381 139.22679258 116.78537849 136.87927103 116.36614943 C121.716484 113.65826541 106.55391849 110.94916373 91.39263916 108.23284912 C90.2494611 108.02804011 89.10628304 107.8232311 87.92846322 107.61221576 C83.34512593 106.79104262 78.76179339 105.969843 74.17848825 105.14849043 C59.64061421 102.54347685 45.10086035 99.94933561 30.5588932 97.36726952 C23.22069152 96.06413257 15.88329572 94.75648712 8.54614866 93.44742644 C2.73081056 92.41021124 -3.0854794 91.37857872 -8.90257835 90.35128784 C-12.44478185 89.72426945 -15.98596528 89.09163794 -19.52687788 88.4573741 C-21.14690648 88.16835296 -22.76734798 87.88163458 -24.38823748 87.59748125 C-45.1900863 83.94784323 -45.1900863 83.94784323 -49.94116211 79.671875 C-52.24582758 75.44665497 -52.9890894 72.29271422 -51.88256836 67.50488281 C-48.69372513 57.0561065 -44.67776661 46.93831133 -40.66870117 36.78222656 C-39.439143 33.66675896 -38.21693032 30.54848626 -36.99584961 27.4296875 C-36.20721337 25.42170753 -35.41816507 23.41388934 -34.62866211 21.40625 C-34.26812744 20.48728943 -33.90759277 19.56832886 -33.53613281 18.621521 C-26.58601623 1.03775829 -26.58601623 1.03775829 -21.44116211 -3.078125 C-14.20541603 -5.52650709 -6.74014892 -2.77977686 0 0 Z " fill="#000000" transform="translate(683.441162109375,393.078125)"/>
<path d="M0 0 C0.82242187 0.020625 1.64484375 0.04125 2.4921875 0.0625 C7.30245354 1.77535438 10.09670439 5.96891194 12.35424805 10.42800903 C13.53927425 13.23224504 14.6299479 16.05686128 15.69140625 18.91015625 C16.09278305 19.95465439 16.49415985 20.99915253 16.90769958 22.07530212 C18.18117791 25.39938277 19.43441688 28.73068504 20.6875 32.0625 C21.53191596 34.27327853 22.37760796 36.48357011 23.22460938 38.69335938 C25.55327027 44.78502401 27.84875651 50.88857258 30.125 57 C30.41791931 57.78437439 30.71083862 58.56874878 31.01263428 59.37689209 C36.64558963 74.5227083 36.64558963 74.5227083 34 82.3125 C30.70223027 87.03930328 25.96657409 88.24495761 20.45781136 89.27026176 C19.360715 89.4597549 19.360715 89.4597549 18.24145508 89.65307617 C17.02533696 89.87476062 17.02533696 89.87476062 15.7846508 90.10092354 C12.96867327 90.61154595 10.15042254 91.10835252 7.33203125 91.60546875 C5.21486321 91.9859571 3.0978293 92.36719242 0.98091125 92.74906921 C-4.71325049 93.77330548 -10.40920182 94.78725711 -16.10579675 95.79784769 C-21.77579164 96.80400311 -27.44495289 97.8147796 -33.11383057 98.82720947 C-58.83945721 103.42117189 -84.5689041 107.99345443 -110.29974449 112.55811489 C-117.95639759 113.91646097 -125.61289325 115.27569151 -133.26928711 116.63549805 C-134.34430107 116.82642064 -135.41931504 117.01734324 -136.52690518 117.21405137 C-140.85013629 117.98186828 -145.17336473 118.74970025 -149.4965837 119.51758552 C-161.12802673 121.58348195 -172.75975241 123.64775732 -184.3923645 125.70706177 C-188.4707337 126.42916182 -192.54909053 127.15133166 -196.62744141 127.87353516 C-197.61868145 128.04903845 -198.6099215 128.22454175 -199.63119912 128.40536332 C-211.70478453 130.54358984 -223.7755377 132.69670026 -235.84233952 134.87288761 C-241.4781725 135.88927834 -247.11503817 136.89987975 -252.75220817 137.90882629 C-257.09369148 138.68643688 -261.43362898 139.47198557 -265.77247095 140.26419401 C-268.99044124 140.84925736 -272.21059382 141.42207836 -275.43041992 141.99682617 C-276.54417433 142.20308561 -277.65792873 142.40934505 -278.80543327 142.62185478 C-295.30325801 145.53074657 -295.30325801 145.53074657 -302.375 142.5 C-305.58767056 139.28732944 -307.15675722 136.49717921 -307.875 132 C-307.67882907 127.56163276 -306.67262346 124.88739897 -303.68556213 121.56413269 C-300.81439621 118.94470994 -298.41776008 117.56735875 -294.87475586 116.0168457 C-293.72562714 115.51118073 -292.57649841 115.00551575 -291.39254761 114.48452759 C-285.9112457 112.1712273 -280.41078975 109.92009321 -274.87890625 107.73046875 C-273.61133386 107.22554238 -272.34390324 106.72025997 -271.07659912 106.21466064 C-268.32660154 105.11818384 -265.57580518 104.02374534 -262.82437134 102.93087769 C-255.84017304 100.15635297 -248.86085776 97.3695739 -241.88095665 94.58426094 C-239.32103508 93.56282699 -236.76095976 92.54177901 -234.20088196 91.52073669 C-214.64444585 83.71899457 -195.10979774 75.86309297 -175.5753479 68.00650024 C-169.16339896 65.42767755 -162.75103052 62.84989907 -156.33862305 60.2722168 C-136.59384634 52.33470654 -116.85043141 44.3938252 -97.1101408 36.44516468 C-87.11185825 32.41927258 -77.11289447 28.39507589 -67.11350727 24.37192822 C-59.92523099 21.47963236 -52.7378957 18.58501398 -45.55124187 15.68868923 C-41.10723147 13.89831815 -36.66235124 12.11011486 -32.21722221 10.32252312 C-30.147641 9.4897275 -28.07842653 8.65601986 -26.00959969 7.82135201 C-23.18493256 6.68188057 -20.35899544 5.5456186 -17.53271484 4.41015625 C-16.2934951 3.90889803 -16.2934951 3.90889803 -15.02924061 3.39751339 C-14.27107894 3.09368016 -13.51291727 2.78984694 -12.73178101 2.47680664 C-12.07889288 2.21388321 -11.42600475 1.95095978 -10.75333214 1.68006897 C-7.08079084 0.3503886 -3.91166892 -0.19497415 0 0 Z " fill="#000000" transform="translate(307.875,389)"/>
</svg>
