<?xml version="1.0" encoding="UTF-8"?>
<svg version="1.1" viewBox="0 0 1600 1600" width="1280" height="1280" xmlns="http://www.w3.org/2000/svg">
<path transform="translate(1156 783)" d="m0 0c2.43 0.0117 4.87 0.0182 7.3 0.0236 23.2 0.0599 46.4 0.275 69.4 3.36 1.54 0.201 1.54 0.201 3.1 0.406 76.8 10.6 157 50.9 214 104 1.29 1.13 2.58 2.26 3.88 3.38 7.65 6.68 15.1 13.6 22.4 20.7 1.37 1.35 1.37 1.35 2.77 2.72 1.98 2.21 1.98 2.21 1.98 4.21h2c1.3 1.26 1.3 1.26 2.88 3.12 0.624 0.736 1.25 1.47 1.89 2.23 1.11 1.31 1.11 1.31 2.23 2.64 0.889 1.02 1.78 2.04 2.67 3.05 22.4 25.6 41.4 53.9 57.3 83.9 0.645 1.21 0.645 1.21 1.3 2.45 33.6 63.8 45.4 131 47.7 203 0.118 3.61 0.249 7.23 0.381 10.8 0.754 22.6 0.613 45.1 0.613 67.8h-566v128h-1034c0-95.4 0-95.4 2-125 0.0728-1.09 0.0728-1.09 0.147-2.21 4.12-60.6 19.6-122 45.9-177 0.993-2.09 1.95-4.2 2.91-6.31 17.2-37.8 40.3-74.5 67.6-106 2.34-2.71 4.58-5.48 6.81-8.27 9.75-11.9 20.7-22.7 31.6-33.6 0.54-0.542 1.08-1.08 1.64-1.64 5.98-6 12-11.9 18.5-17.4 1.04-0.901 2.09-1.8 3.13-2.7 7.8-6.64 15.7-13.1 23.9-19.3 0.558-0.427 1.12-0.854 1.69-1.29 72-54.7 159-89.7 248-101 1.29-0.167 2.59-0.334 3.92-0.507 10.8-1.36 21.5-2.16 32.3-2.68 1.31-0.065 1.31-0.065 2.66-0.131 53.8-2.57 108 3.21 160 17.3 1.17 0.308 1.17 0.308 2.37 0.622 64.4 16.9 121 49.1 176 86.4 7.67-6.54 15.2-13.2 22.3-20.3 2.35-2.31 4.84-4.44 7.33-6.59 2.37-2.09 4.68-4.23 6.99-6.39 6.25-5.83 12.6-11.4 19.4-16.7 0.603-0.475 1.21-0.95 1.83-1.44 17.6-13.8 36-26 55.2-37.6 0.632-0.385 1.26-0.77 1.91-1.17 11.2-6.82 23.1-12.4 35.1-17.8 0.99-0.453 1.98-0.906 3-1.37 28.9-13.1 59.2-22.4 90-29.6 0.78-0.189 1.56-0.378 2.36-0.572 25.9-6.16 53.5-5.95 79.9-5.81z" fill="#000002"/>
<path transform="translate(704 248)" d="m0 0c2.23 2.11 4.49 4.1 6.84 6.07 9.69 8.43 17.9 18.6 25.6 28.8 0.898 1.18 1.8 2.37 2.71 3.54 8.13 10.5 15.1 21.7 21.6 33.2 0.469 0.827 0.939 1.65 1.42 2.51 20.9 37.4 32.9 79 37.6 121 0.0943 0.767 0.189 1.53 0.286 2.32 1.08 9.85 0.958 19.8 0.964 29.7 0.00101 1.47 0.00101 1.47 0.00204 2.97-0.0911 83.4-34.2 160-92.3 219-8.09 8.03-16.9 15.2-26 22-0.64 0.481-1.28 0.962-1.94 1.46-42.8 31.8-93.2 51.7-147 51.7-1.53 0.00323-3.05 0.00659-4.58 0.0101-3.17 0.00593-6.34 0.00785-9.51 0.00725-3.21-8.13e-5 -6.42 0.00689-9.63 0.0205-43 0.179-43 0.179-59.3-4.96-0.877-0.265-1.75-0.531-2.66-0.804-1.78-0.543-3.56-1.09-5.33-1.65-2.32-0.73-4.64-1.43-6.97-2.13-51.9-16-102-50.2-135-93.7l-2.4-3.02c-32.2-40.7-62.7-98.9-62.8-152-0.00496-0.946-0.00993-1.89-0.015-2.87-0.0146-3.12-0.0214-6.23-0.0269-9.35-0.00283-1.07-0.00565-2.15-0.00857-3.25-0.015-5.69-0.0242-11.4-0.0285-17.1-0.00545-5.83-0.0294-11.7-0.058-17.5-0.0188-4.52-0.0238-9.04-0.0254-13.6-0.00299-2.14-0.0109-4.29-0.0242-6.43-0.108-18.8 1.85-36.1 7.47-54 0.294-0.951 0.294-0.951 0.593-1.92 16-51.9 41.8-95.1 79.3-134 0.753-0.802 1.51-1.6 2.28-2.43 1.72-1.57 1.72-1.57 3.72-1.57v-2c1.29-1.34 1.29-1.34 3.19-2.94 0.733-0.621 1.47-1.24 2.22-1.88 1.28-1.08 1.28-1.08 2.59-2.18 0.968-0.843 1.94-1.69 2.93-2.55 41.8-36.3 97.7-60.7 153-64.4 1.48-0.122 2.96-0.245 4.44-0.367 75-5.62 151 21.9 206 73.7z" fill="#000002"/>
<path transform="translate(1308 269)" d="m0 0c3.5 2.94 7.13 5.72 10.8 8.51 0.594 0.538 1.19 1.08 1.8 1.63v2c0.581 0.255 1.16 0.51 1.76 0.773 6.87 3.77 12.2 11.3 17.2 17.2 0.466 0.552 0.931 1.1 1.41 1.67 16 19 29 39.8 39.6 62.3 0.3 0.637 0.6 1.27 0.909 1.93 22.2 47.8 25.5 98.1 21.1 150-0.131 1.69-0.131 1.69-0.266 3.41-2.64 24-12 49-22.7 70.6-0.623 1.28-1.25 2.56-1.87 3.85-9.36 19.2-20.2 36.9-34.1 53.2-0.971 1.16-1.94 2.31-2.91 3.47-8.06 9.56-16.5 18.5-26.1 26.5-0.507 0.427-1.01 0.853-1.54 1.29-9.08 7.59-18.5 14.3-28.6 20.5-1.61 0.993-3.2 2.01-4.79 3.02-51 31.5-116 38.8-174 25.8-28.4-6.77-56-19.4-79.6-36.6-0.548-0.399-1.1-0.798-1.66-1.21-3.86-2.84-7.62-5.78-11.3-8.79-0.55-0.445-1.1-0.891-1.67-1.35-13.7-11.2-26.7-23.5-37.3-37.7-0.405-0.523-0.809-1.05-1.23-1.58-28.3-36.7-46.9-80.4-52.8-126-0.103-0.794-0.206-1.59-0.312-2.41-7.84-63.5 4.58-135 43.3-188 0.447-0.611 0.894-1.22 1.35-1.85 3.04-4.15 6.12-8.25 9.25-12.3 1.19-1.54 2.36-3.1 3.53-4.65 11.1-14.1 24.4-26.6 38.9-37.2 1.15-0.856 2.3-1.71 3.45-2.57 30.4-22.4 67-39.9 105-45.4 1.01-0.152 1.01-0.152 2.04-0.308 64.1-9.2 132 8.2 181 50.2z" fill="#000002"/>
</svg>
