<?xml version="1.0" encoding="UTF-8"?>
<svg version="1.1" viewBox="0 0 1600 1600" width="1280" height="1280" xmlns="http://www.w3.org/2000/svg">
<path transform="translate(1581 14.7)" d="m0 0c5.65 5.12 9.31 11.6 12.7 18.3 1.01 1.97 1.01 1.97 2.29 3.89 4.78 8.02 4.43 16 4.35 25 0.00401 1.73 0.0102 3.45 0.0184 5.18 0.0162 4.75 0.00115 9.5-0.0189 14.2-0.0163 5.17-0.00353 10.3 0.00555 15.5 0.0119 9.06 0.00522 18.1-0.0136 27.2-0.0279 13.5-0.0272 27-0.0206 40.5 0.0102 22.7-0.00298 45.4-0.0296 68.2-0.0265 22.6-0.0429 45.2-0.0459 67.8-9.93e-5 0.704-1.99e-4 1.41-3.01e-4 2.13-9.06e-4 6.43-0.0017 12.9-0.00236 19.3-0.00164 16-0.00491 32-0.00931 48-2e-4 0.729-3.99e-4 1.46-6.05e-4 2.21-0.00987 35.5-0.0386 71-0.0686 106-0.0414 49-0.0699 98-0.082 147-3.78e-4 1.51-7.56e-4 3.03-0.00114 4.54-0.00301 12.1-0.00598 24.1-0.00884 36.2-0.0126 52.8-0.0354 106-0.0607 158-0.00403 8.43-0.00787 16.9-0.0115 25.3-0.0928 212-0.0928 212-0.707 311-0.0152 2.26-0.0301 4.53-0.0448 6.79-0.176 27-0.378 54-0.988 81-0.0281 1.28-0.0281 1.28-0.0567 2.59-1.21 53.7-17.2 97.9-53.2 139-1.13 1.29-2.24 2.6-3.35 3.91-3.31 3.91-6.78 7.32-10.7 10.6-2.67 2.3-5.21 4.73-7.77 7.15-7.06 6.53-14.6 12.3-22.5 17.8-0.726 0.513-1.45 1.03-2.2 1.55-70.7 49.3-163 63.6-247 49.1-41.2-7.57-81.9-21.9-117-45.7-0.924-0.625-0.924-0.625-1.87-1.26-10.3-6.98-19.9-14.5-29.1-22.7-0.904-0.793-1.81-1.59-2.74-2.4-9.63-8.52-18.3-17.5-26.3-27.6-1.15-1.41-1.15-1.41-2.33-2.85-30.9-38.6-47.8-88-43.4-138 3.98-35.2 17.7-68.2 38.7-96.6 0.659-0.894 0.659-0.894 1.33-1.81 7.21-9.7 15.3-18.5 23.7-27.2 0.826-0.868 1.65-1.74 2.5-2.63 5.46-5.61 11.4-10.5 17.5-15.4 0.987-0.793 1.97-1.59 2.99-2.4 66.1-52.2 155-71.8 237-62.2 42.9 5.37 81.7 19.2 120 38.1 0.612 0.299 1.22 0.598 1.85 0.907 1.68 0.822 3.36 1.65 5.03 2.47 2.14 1.21 2.14 1.21 3.44 1.14 0.33-220 0.66-441 1-668-6.27 0.99-12.5 1.98-19 3-4.08 0.526-8.14 1.03-12.2 1.48-1.63 0.184-1.63 0.184-3.29 0.373-3.56 0.402-7.13 0.799-10.7 1.19-2.58 0.29-5.17 0.581-7.75 0.872-6.25 0.704-12.5 1.4-18.8 2.1-5.12 0.572-10.2 1.15-15.4 1.72-1.11 0.124-1.11 0.124-2.23 0.251-1.5 0.168-3 0.336-4.49 0.504-17.1 1.92-34.1 3.82-51.2 5.73-5.34 0.596-10.7 1.19-16 1.79-61 6.81-122 13.6-183 20.2-26.7 2.89-53.4 5.82-80.1 8.79-0.93 0.103-1.86 0.207-2.82 0.314-21.4 2.38-42.8 4.78-64.2 7.19-0.915 0.103-1.83 0.206-2.77 0.312-8.34 0.939-16.7 1.88-25 2.82-25.6 2.88-51.2 5.72-76.8 8.52-51.5 5.63-103 11.4-154 17.3-14.7 1.67-29.4 3.33-44.1 4.99-7.73 0.87-15.4 1.74-23.2 2.61-5.05 0.571-10.1 1.14-15.2 1.71-20 2.25-39.9 4.55-59.9 7.02-0.872 0.107-1.74 0.214-2.64 0.325-2.44 0.3-4.88 0.605-7.32 0.911-1.08 0.133-1.08 0.133-2.19 0.268-2.92 0.371-5.53 0.816-8.33 1.75-0.0026 1.94-0.0026 1.94-0.00526 3.92-0.0772 57.5-0.155 115-0.238 172-0.00191 1.32-0.00191 1.32-0.00385 2.67-0.0277 19.2-0.0556 38.4-0.0836 57.6-0.0138 9.42-0.0275 18.8-0.0412 28.3-0.00205 1.41-0.00205 1.41-0.00413 2.84-0.0395 27.2-0.0773 54.3-0.114 81.5-0.234 176-0.234 176-0.968 394-0.0149 2.58-0.0294 5.15-0.0438 7.73-1.05 187-1.05 187-56 246-1.96 2.11-3.83 4.24-5.65 6.46-2.63 3.1-5.55 5.71-8.65 8.33-1.44 1.24-2.85 2.5-4.23 3.8-26.7 25.1-60.8 42.6-94.9 55.1-1.47 0.539-1.47 0.539-2.96 1.09-37.1 13.4-72.5 17.1-112 17-3.27-0.0054-6.54 1.03e-5 -9.82 0.00635-33.4 0.0135-33.4 0.0135-49.2-2.76-1.48-0.256-1.48-0.256-3-0.516-56.1-10.2-110-35.2-152-72.9-0.505-0.442-1.01-0.883-1.53-1.34-38.9-34.2-65.9-83.5-69.5-136-0.802-16.9-0.349-33.4 3-50l0.504-2.51c6.76-32.4 22.9-62.6 44.5-87.5 0.647-0.758 1.29-1.52 1.96-2.3 11-12.6 22.8-24.5 36.3-34.4 1.76-1.3 3.49-2.63 5.22-3.97 68-51.9 157-67.9 240-57.3 38.7 5.36 74.1 17.9 109 34.8 1.26 0.607 2.52 1.21 3.78 1.82 3.05 1.47 6.1 2.94 9.15 4.41 0.44-90 0.83-180 1.31-368 0.00371-1.63 0.00371-1.63 0.00749-3.29 0.0227-9.97 0.0453-19.9 0.0677-29.9 0.0687-30.5 0.148-61.1 0.235-91.6 0.0589-20.6 0.114-41.2 0.168-61.8 0.00897-3.45 0.018-6.89 0.0271-10.3 0.164-62.8 0.177-126 0.0252-188-0.0394-16.4-0.066-32.8-0.0807-49.2-0.00146-1.59-0.00146-1.59-0.00295-3.21-0.00863-9.49-0.0165-19-0.0218-28.5-0.0132-23.4-0.0575-46.7-0.18-70.1-0.0837-16-0.119-32.1-0.103-48.1 0.00759-9.46-0.0242-18.9-0.114-28.4-0.0559-6.3-0.0607-12.6-0.0249-18.9 0.0189-3.58 0.0165-7.15-0.0494-10.7-0.305-17.6 1.63-29.1 14-42.2 0.872-0.888 0.872-0.888 1.76-1.79 0.831-0.86 0.831-0.86 1.68-1.74 20-20.5 56.6-18.8 83.5-22.2 2.31-0.291 4.62-0.583 6.92-0.875 32.7-4.14 65.5-7.98 98.3-11.7 5.5-0.63 11-1.26 16.5-1.9 0.8-0.0922 1.6-0.184 2.43-0.28 0.803-0.0925 1.61-0.185 2.43-0.28 43.1-4.97 86.2-9.89 129-14.7 3.78-0.426 7.57-0.852 11.4-1.28 0.965-0.109 1.93-0.217 2.92-0.329 14-1.58 28.1-3.19 42.1-4.81 56.2-6.5 112-12.8 169-19 8.36-0.928 16.7-1.86 25.1-2.79 53-5.89 106-11.8 159-17.5 1.14-0.124 2.27-0.248 3.44-0.376 39.6-4.32 79.2-8.6 119-12.8 7.55-0.804 15.1-1.61 22.7-2.42 39.6-4.25 79.1-8.41 119-12.3 4.05-0.402 8.1-0.808 12.2-1.22 4.76-0.48 9.52-0.951 14.3-1.42 1.74-0.171 3.48-0.345 5.21-0.522 22.9-2.33 44.3-3.58 63.5 11.3z" fill="#000002"/>
</svg>
